<svg viewBox="0 0 36 20" xmlns="http://www.w3.org/2000/svg" xmlns:xlink="http://www.w3.org/1999/xlink">
    <defs>
        <path id="a" d="M35.08 20V0H0v20h35.08z"/>
    </defs>
    <g fill="none" fill-rule="evenodd">
        <mask id="b" fill="#fff">
            <use xlink:href="#a"/>
        </mask>
        <path d="M33.47 19.91l-4.684.07s-1.012.203-2.33-.71c-1.752-1.2-3.404-4.332-4.695-3.922-1.3.41-1.262 3.221-1.262 3.221s.01.602-.29.92c-.32.348-.96.418-.96.418h-2.092s-4.624.282-8.696-3.964C4.016 11.32.097 2.147.097 2.147s-.23-.603.019-.891c.278-.33 1.03-.35 1.03-.35L6.163.879s.47.08.81.33c.281.201.429.589.429.589S8.21 3.849 9.283 5.7c2.091 3.61 3.071 4.402 3.781 4.02 1.032-.56.722-5.113.722-5.113s.018-1.651-.52-2.381c-.42-.57-1.21-.74-1.55-.781-.28-.043.18-.693.782-.99.9-.442 2.491-.47 4.374-.452 1.46.01 1.892.11 2.462.24 1.733.42 1.14 2.03 1.14 5.895 0 1.243-.22 2.982.67 3.552.38.248 1.318.037 3.672-3.952 1.11-1.892 1.95-4.11 1.95-4.11s.18-.402.46-.57c.292-.17.683-.12.683-.12L33.182.91s1.582-.19 1.841.53c.27.75-.589 2.502-2.74 5.373-3.532 4.714-3.932 4.272-.99 6.994 2.803 2.603 3.381 3.871 3.484 4.031 1.14 1.922-1.3 2.072-1.3 2.072h-.006z" fill="#FFF" mask="url(#b)"/>
    </g>
</svg>
