<svg width="50" height="72" viewBox="0 0 50 72" xmlns="http://www.w3.org/2000/svg">
    <g fill="none" fill-rule="evenodd">
        <path d="M25 13.363c-12.682 0-23 10.317-23 23s10.318 23 23 23 23-10.317 23-23-10.318-23-23-23m0 48c-13.785 0-25-11.215-25-25s11.215-25 25-25 25 11.215 25 25-11.215 25-25 25" fill="#132E99"/>
        <path d="M37 39.711c0 6.627-5.373 12-12 12s-12-5.373-12-12" fill="#F92855"/>
        <path d="M15.25 30.711a2.25 2.25 0 1 1-4.499 0 2.25 2.25 0 0 1 4.5 0m23.999 0a2.25 2.25 0 1 1-4.499 0 2.25 2.25 0 0 1 4.5 0" fill="#132E99"/>
    </g>
</svg>
