<svg width="59" height="48" viewBox="0 0 59 48" xmlns="http://www.w3.org/2000/svg">
    <g fill="none" fill-rule="evenodd">
        <path d="M54 33.667H18c-2.2 0-4-1.8-4-4v-24c0-2.2 1.8-4 4-4h36c2.2 0 4 1.8 4 4v24c0 2.2-1.8 4-4 4z" fill="#FFF"/>
        <path d="M18 2.666c-1.654 0-3 1.346-3 3v24c0 1.654 1.346 3 3 3h36c1.654 0 3-1.346 3-3v-24c0-1.654-1.346-3-3-3H18zm36 32H18c-2.757 0-5-2.243-5-5v-24c0-2.757 2.243-5 5-5h36c2.757 0 5 2.243 5 5v24c0 2.757-2.243 5-5 5z" fill="#132E99"/>
        <path d="M44.667 25.667a5.334 5.334 0 1 1-10.668 0 5.334 5.334 0 0 1 10.668 0" fill="#FFF"/>
        <path d="M39.333 21.333A4.337 4.337 0 0 0 35 25.666 4.338 4.338 0 0 0 39.333 30a4.338 4.338 0 0 0 4.333-4.334 4.338 4.338 0 0 0-4.333-4.333m0 10.667A6.341 6.341 0 0 1 33 25.666a6.34 6.34 0 0 1 6.333-6.333 6.34 6.34 0 0 1 6.333 6.333A6.341 6.341 0 0 1 39.333 32" fill="#132E99"/>
        <path d="M52.667 25.667a5.334 5.334 0 1 1-10.668 0 5.334 5.334 0 0 1 10.668 0" fill="#FFF"/>
        <path d="M47.333 21.333A4.337 4.337 0 0 0 43 25.666 4.338 4.338 0 0 0 47.333 30a4.338 4.338 0 0 0 4.333-4.334 4.338 4.338 0 0 0-4.333-4.333m0 10.667A6.341 6.341 0 0 1 41 25.666a6.34 6.34 0 0 1 6.333-6.333 6.34 6.34 0 0 1 6.333 6.333A6.341 6.341 0 0 1 47.333 32" fill="#132E99"/>
        <path fill="#FFF" d="M14 15h44V9.667H14z"/>
        <path d="M15 14h42v-3.334H15V14zm-2 2h46V8.666H13V16z" fill="#132E99"/>
        <path d="M0 33.667c0-7.732 6.268-14 14-14s14 6.268 14 14-6.268 14-14 14-14-6.268-14-14" fill="#F92855"/>
        <path d="M14.395 33.41c.244 0 .472-.048.683-.144.212-.097.395-.228.549-.395.154-.168.276-.357.365-.569a1.744 1.744 0 0 0-.355-1.886 1.623 1.623 0 0 0-1.242-.53h-1.386v3.523h1.386zM9.929 27h4.504a4.663 4.663 0 0 1 3.34 1.357c.417.416.744.907.982 1.471a4.63 4.63 0 0 1 .356 1.81 4.622 4.622 0 0 1-1.338 3.282 4.68 4.68 0 0 1-3.34 1.357h-1.424v4.39h-3.08V26.998z" fill="#FFF"/>
        <path fill="#FFF" d="M7.875 38.917h7v-1.75h-7z"/>
    </g>
</svg>
