<svg width="42" height="72" viewBox="0 0 42 72" xmlns="http://www.w3.org/2000/svg">
    <g fill="none" fill-rule="evenodd">
        <path fill="#FFF" d="M9 72h16V0H9z"/>
        <path d="M27 64H7c-3.3 0-6-2.7-6-6V14c0-3.3 2.7-6 6-6h20c3.3 0 6 2.7 6 6v44c0 3.3-2.7 6-6 6z" fill="#FFF"/>
        <path d="M7 9c-2.757 0-5 2.242-5 5v44c0 2.757 2.243 5 5 5h20c2.757 0 5-2.243 5-5V14c0-2.758-2.243-5-5-5H7zm20 56H7c-3.86 0-7-3.142-7-7V14c0-3.86 3.14-7 7-7h20c3.86 0 7 3.14 7 7v44c0 3.858-3.14 7-7 7z" fill="#132E99"/>
        <path fill="#FFF" d="M5 56h24V16H5z"/>
        <path d="M6 55h22V17H6v38zm23 2H5a1 1 0 0 1-1-1V16a1 1 0 0 1 1-1h24a1 1 0 0 1 1 1v40a1 1 0 0 1-1 1z" fill="#132E99"/>
        <path d="M13 12h8" fill="#FFF"/>
        <path d="M21 13h-8a1 1 0 1 1 0-2h8a1 1 0 1 1 0 2" fill="#132E99"/>
        <path d="M19 60a2 2 0 1 1-3.999.001A2 2 0 0 1 19 60" fill="#FFF"/>
        <path d="M17 59a1.001 1.001 0 0 0 0 2 1.001 1.001 0 0 0 0-2m0 4c-1.654 0-3-1.346-3-3s1.346-3 3-3 3 1.346 3 3-1.346 3-3 3" fill="#132E99"/>
        <path fill="#F92855" d="M27.268 27.56l3.75-2.405 2.048 3.958 4.45-.207-.206 4.452 3.958 2.046-2.405 3.75 2.405 3.752-3.958 2.047.207 4.45-4.451-.206-2.047 3.958-3.751-2.405-3.751 2.405-2.047-3.958-4.451.207.207-4.451-3.958-2.047 2.405-3.751-2.405-3.751 3.958-2.046-.207-4.452 4.45.207 2.048-3.958z"/>
    </g>
</svg>
