<svg width="48" height="72" viewBox="0 0 48 72" xmlns="http://www.w3.org/2000/svg">
    <title>
        81463366-A72B-4602-A489-DA16968C62C6
    </title>
    <g fill="none" fill-rule="evenodd">
        <path fill="#FFF" d="M16 72h16V0H16z"/>
        <path fill="#F92855" d="M24 16.123L17.57 12l-3.509 6.786-7.63-.355.355 7.63L0 29.57 4.123 36 0 42.43l6.786 3.509-.356 7.63 7.631-.354L17.57 60 24 55.878 30.43 60l3.51-6.786 7.63.354-.356-7.63L48 42.43 43.877 36 48 29.57l-6.785-3.508.355-7.631-7.63.355L30.43 12z"/>
        <path fill="#FFF" d="M11.062 33.496l1.881-1.881V40.5h-1.881zm7.458 5.358c.388 0 .743-.072 1.065-.217a2.613 2.613 0 0 0 1.386-1.46c.132-.334.198-.69.198-1.07 0-.38-.066-.737-.198-1.07a2.613 2.613 0 0 0-1.386-1.46 2.578 2.578 0 0 0-1.064-.218 2.572 2.572 0 0 0-1.9.805 2.678 2.678 0 0 0-.55.872 2.867 2.867 0 0 0-.198 1.071c0 .38.065.736.198 1.07a2.613 2.613 0 0 0 1.386 1.46c.32.145.676.217 1.064.217m0 1.745a4.397 4.397 0 0 1-1.751-.353 4.615 4.615 0 0 1-1.442-.965 4.602 4.602 0 0 1-.977-1.429 4.282 4.282 0 0 1-.36-1.745c0-.619.12-1.2.36-1.745a4.595 4.595 0 0 1 .977-1.43c.413-.408.893-.73 1.442-.965a4.397 4.397 0 0 1 1.75-.353 4.4 4.4 0 0 1 1.752.353 4.626 4.626 0 0 1 1.442.965c.412.41.738.885.977 1.43.24.544.359 1.126.359 1.745 0 .618-.12 1.2-.36 1.745a4.602 4.602 0 0 1-.976 1.43c-.413.407-.894.73-1.442.964a4.4 4.4 0 0 1-1.751.353m9.578-1.745c.387 0 .742-.072 1.064-.217a2.613 2.613 0 0 0 1.386-1.46c.132-.334.198-.69.198-1.07 0-.38-.066-.737-.198-1.07a2.613 2.613 0 0 0-1.386-1.46 2.578 2.578 0 0 0-1.064-.218 2.572 2.572 0 0 0-1.9.805 2.678 2.678 0 0 0-.55.872 2.867 2.867 0 0 0-.198 1.071c0 .38.065.736.198 1.07a2.613 2.613 0 0 0 1.386 1.46c.32.145.676.217 1.064.217m0 1.745a4.397 4.397 0 0 1-1.751-.353 4.615 4.615 0 0 1-1.442-.965 4.602 4.602 0 0 1-.977-1.429 4.282 4.282 0 0 1-.36-1.745c0-.619.12-1.2.36-1.745a4.595 4.595 0 0 1 .977-1.43c.413-.408.893-.73 1.442-.965a4.397 4.397 0 0 1 1.75-.353 4.4 4.4 0 0 1 1.752.353 4.626 4.626 0 0 1 1.442.965c.412.41.738.885.977 1.43.24.544.359 1.126.359 1.745 0 .618-.12 1.2-.36 1.745a4.602 4.602 0 0 1-.976 1.43c-.413.407-.894.73-1.442.964a4.4 4.4 0 0 1-1.751.353m7.193-1.176a.51.51 0 0 0 .377-.155.512.512 0 0 0 .155-.377.518.518 0 0 0-.155-.378.513.513 0 0 0-.377-.154.514.514 0 0 0-.378.154.517.517 0 0 0-.154.378c0 .15.051.274.154.377a.51.51 0 0 0 .378.155zm0-5.557a.513.513 0 0 0 .377-.154.515.515 0 0 0 .155-.378.514.514 0 0 0-.155-.377.514.514 0 0 0-.377-.155.515.515 0 0 0-.378.155.513.513 0 0 0-.154.377c0 .15.051.275.154.378a.514.514 0 0 0 .378.154zm0 6.683a1.65 1.65 0 0 1-1.659-1.658c0-.23.044-.448.13-.65.087-.202.205-.379.353-.532a1.618 1.618 0 0 1 1.176-.489c.231 0 .447.043.65.13a1.699 1.699 0 0 1 .891.891c.086.202.13.42.13.65a1.618 1.618 0 0 1-.488 1.175 1.734 1.734 0 0 1-.533.353 1.63 1.63 0 0 1-.65.13zm0-5.556a1.644 1.644 0 0 1-1.176-.483 1.66 1.66 0 0 1-.483-1.176c0-.23.044-.447.13-.649.087-.202.205-.38.353-.532a1.618 1.618 0 0 1 1.176-.489c.231 0 .447.043.65.13a1.699 1.699 0 0 1 .891.891c.086.202.13.42.13.65 0 .23-.044.447-.13.65a1.612 1.612 0 0 1-.359.525 1.752 1.752 0 0 1-.532.353c-.203.086-.419.13-.65.13zm-1.906 1.82h3.824V35.4h-3.824v1.411z"/>
    </g>
</svg>
