<svg width="56" height="47" viewBox="0 0 56 47" xmlns="http://www.w3.org/2000/svg">
    <g fill="none" fill-rule="evenodd">
        <path fill="#FFF" d="M18.692 27.827h36V1.645h-36z"/>
        <path d="M17.691 28.827h38V.645h-38v28.182zm2-2h34V2.645h-34v24.182z" fill="#132E99"/>
        <path fill="#FFF" d="M25.237 11.464l4.91-4.91 4.908 4.91"/>
        <path fill="#132E99" d="M34.348 12.17l-4.202-4.2-4.202 4.202-1.414-1.414 5.616-5.616 5.616 5.616z"/>
        <path fill="#FFF" d="M25.237 18.01l4.91-4.91 4.908 4.91"/>
        <path fill="#132E99" d="M34.348 18.717l-4.202-4.202-4.202 4.202-1.414-1.414 5.616-5.616 5.616 5.616z"/>
        <path d="M30.146 21.282V6.554v14.728z" fill="#FFF"/>
        <path fill="#132E99" d="M29.146 21.282h2V6.554h-2z"/>
        <path d="M49.783 11.464a4.91 4.91 0 1 1-9.819 0 4.91 4.91 0 0 1 9.819 0z" fill="#FFF"/>
        <path d="M44.874 7.555a3.913 3.913 0 0 0-3.91 3.909 3.913 3.913 0 0 0 3.91 3.909 3.914 3.914 0 0 0 3.909-3.91 3.914 3.914 0 0 0-3.91-3.908m0 9.818a5.915 5.915 0 0 1-5.908-5.91 5.915 5.915 0 0 1 5.909-5.908 5.915 5.915 0 0 1 5.909 5.909 5.915 5.915 0 0 1-5.91 5.909" fill="#132E99"/>
        <path d="M44.873 11.464v9.818" fill="#FFF"/>
        <path fill="#132E99" d="M43.874 21.282h2v-9.818h-2z"/>
        <path d="M26.873 21.282h21.274" fill="#FFF"/>
        <path fill="#132E99" d="M26.874 22.282h21.272v-2H26.874z"/>
        <path d="M0 32.736V14.07h28v18.667c0 7.732-6.268 14-14 14s-14-6.268-14-14" fill="#F92855"/>
    </g>
</svg>
