<svg width="65" height="38" viewBox="0 0 65 38" xmlns="http://www.w3.org/2000/svg" xmlns:xlink="http://www.w3.org/1999/xlink">
    <title>
        88F15F10-8774-4381-BCD5-284CF6265BA4
    </title>
    <defs>
        <path id="a" d="M0 72h65V0H0z"/>
    </defs>
    <g transform="translate(0 -17)" fill="none" fill-rule="evenodd">
        <path d="M0 36c0-9.941 8.059-18 18-18s18 8.059 18 18-8.059 18-18 18S0 45.941 0 36z" fill="#F92855"/>
        <path d="M16.616 45.051c-2.139-.362-3.716-1.509-4.734-3.44l2.845-2.33a6.184 6.184 0 0 0 1.436 1.617c.561.44 1.23.66 2.006.66.604 0 1.047-.15 1.332-.453a1.54 1.54 0 0 0 .427-1.099c0-.414-.163-.772-.492-1.074-.326-.302-.88-.625-1.655-.97l-1.035-.466c-1.397-.62-2.423-1.427-3.08-2.419-.655-.992-.982-2.109-.982-3.35 0-.674.099-1.29.298-1.85a5.046 5.046 0 0 1 2.069-2.615 5.163 5.163 0 0 1 1.565-.659v-2.252h3.287v2.277c.552.138 1.07.371 1.553.7.483.327.983.793 1.5 1.396l-2.483 2.614c-.45-.5-.828-.837-1.14-1.01a2.102 2.102 0 0 0-1.034-.258c-.57 0-.992.146-1.268.44a1.495 1.495 0 0 0-.415 1.061c0 .483.204.88.608 1.19.405.31 1.032.656 1.877 1.035l.983.44c2.518 1.138 3.777 2.975 3.777 5.511 0 1.38-.349 2.527-1.047 3.441-.698.914-1.67 1.518-2.912 1.811v2.278h-3.286v-2.226zM64 36c0 9.941-8.059 18-18 18s-18-8.059-18-18 8.059-18 18-18 18 8.059 18 18" fill="#FFF"/>
        <path d="M46 19c-9.374 0-17 7.625-17 17 0 9.373 7.626 17 17 17 9.374 0 17-7.627 17-17 0-9.375-7.626-17-17-17m0 36c-10.477 0-19-8.523-19-19s8.523-19 19-19 19 8.523 19 19-8.523 19-19 19" fill="#132E99"/>
        <mask id="b" fill="#fff">
            <use xlink:href="#a"/>
        </mask>
        <path fill="#132E99" mask="url(#b)" d="M31 37h3v-2h-3zm27 0h3v-2h-3zM45 51h2v-3h-2zm0-27h2v-3h-2zM33.51 44.366l-1-1.732 2.598-1.5 1 1.732zm23.382-13.5l-1-1.732 2.598-1.5 1 1.732zM52.634 49.49l-1.5-2.598 1.732-1 1.5 2.599zm-13.5-23.382l-1.5-2.6 1.732-1 1.5 2.6zm.232 23.382l-1.732-1 1.5-2.598 1.732 1zm13.5-23.382l-1.732-1 1.5-2.6 1.732 1zm5.624 18.258l-2.597-1.5 1-1.732 2.598 1.5zm-23.382-13.5l-2.598-1.5 1-1.732 2.598 1.5zm6.947 8.966l-1.11-1.664L45 35.465V25.5h2v11.035z"/>
    </g>
</svg>
