<svg width="65" height="72" viewBox="0 0 65 72" xmlns="http://www.w3.org/2000/svg" xmlns:xlink="http://www.w3.org/1999/xlink">
    <title>
        7B5AEFF4-842C-4DD2-9D97-C3A8E63A9169
    </title>
    <defs>
        <path id="a" d="M48 18.882v-18H0v18z"/>
    </defs>
    <g fill="none" fill-rule="evenodd">
        <path fill="#FFF" d="M24.5 72h16V0h-16z"/>
        <path d="M43 20.882H7c-3.3 0-6 2.7-6 6s2.7 6 6 6h3v6l4-6h29c3.3 0 6-2.7 6-6s-2.7-6-6-6" fill="#FFF"/>
        <path d="M7 21.881c-2.757 0-5 2.243-5 5s2.243 5 5 5h4v3.697l2.465-3.697H43c2.757 0 5-2.243 5-5s-2.243-5-5-5H7zm2 20.303v-8.303H7c-3.86 0-7-3.14-7-7 0-3.859 3.14-7 7-7h36c3.86 0 7 3.141 7 7 0 3.86-3.14 7-7 7H14.535L9 42.184z" fill="#132E99"/>
        <path d="M19 29.882c-.825 0-1.5-.675-1.5-1.5s.675-1.5 1.5-1.5 1.5.675 1.5 1.5-.675 1.5-1.5 1.5m6 0c-.825 0-1.5-.675-1.5-1.5s.675-1.5 1.5-1.5 1.5.675 1.5 1.5-.675 1.5-1.5 1.5m6 0c-.825 0-1.5-.675-1.5-1.5s.675-1.5 1.5-1.5 1.5.675 1.5 1.5-.675 1.5-1.5 1.5" fill="#132E99"/>
        <g transform="translate(17 38)">
            <mask id="b" fill="#fff">
                <use xlink:href="#a"/>
            </mask>
            <path d="M42 .882H6c-3.3 0-6 2.7-6 6s2.7 6 6 6h32l4 6v-6c3.3 0 6-2.7 6-6s-2.7-6-6-6" fill="#F92855" mask="url(#b)"/>
        </g>
        <path d="M38.33 46.677a1.635 1.635 0 0 0 1.187-.506 1.76 1.76 0 0 0 .48-1.218 1.754 1.754 0 0 0-.48-1.217 1.626 1.626 0 0 0-1.188-.507 1.637 1.637 0 0 0-1.188.507 1.779 1.779 0 0 0 0 2.434c.15.156.325.28.529.371.203.091.423.136.66.136m0 1.271a2.9 2.9 0 0 1-1.163-.236 3.023 3.023 0 0 1-1.598-1.596 2.916 2.916 0 0 1-.235-1.163c0-.413.08-.8.235-1.163a3.043 3.043 0 0 1 1.597-1.597 2.899 2.899 0 0 1 1.164-.235c.413 0 .8.078 1.163.235a3.026 3.026 0 0 1 1.596 1.597c.157.363.236.75.236 1.163 0 .412-.079.8-.236 1.163a3.023 3.023 0 0 1-1.597 1.596c-.362.157-.75.236-1.162.236m3.633-5.923h1.32v2.937l2.046-2.938h1.518l-2.054 2.954 2.318 2.904h-1.634l-2.194-2.747v2.747h-1.32z" fill="#FFF"/>
    </g>
</svg>
