<svg width="192" height="193" viewBox="0 0 192 193" xmlns="http://www.w3.org/2000/svg" xmlns:xlink="http://www.w3.org/1999/xlink">
    <title>
        B1AB88F1-7279-4308-876D-BFA041CDEED5
    </title>
    <defs>
        <path id="a" d="M0 0h1280v608H0z"/>
        <mask id="b" x="0" y="0" width="1280" height="608" fill="#fff">
            <use xlink:href="#a"/>
        </mask>
        <path id="c" d="M0 192h192V0H0z"/>
    </defs>
    <g fill="none" fill-rule="evenodd">
        <use mask="url(#b)" xlink:href="#a" transform="translate(-544 -128)" stroke="#142E99" stroke-width="24" fill="#FFF"/>
        <path d="M176 84.784c0 35.346-28.654 64-64 64-35.346 0-64-28.653-64-64 0-35.346 28.654-64 64-64 35.346 0 64 28.654 64 64z" fill="#FFF"/>
        <path d="M112 21.784c-34.738 0-63 28.262-63 63s28.262 63 63 63 63-28.262 63-63-28.262-63-63-63m0 128c-35.84 0-65-29.159-65-65 0-35.84 29.16-65 65-65 35.841 0 65 29.16 65 65 0 35.841-29.159 65-65 65" fill="#132E99"/>
        <path d="M58.667 84.784h10.667" fill="#FFF"/>
        <mask id="d" fill="#fff">
            <use xlink:href="#c"/>
        </mask>
        <path fill="#132E99" mask="url(#d)" d="M58.667 85.784h10.667v-2H58.667z"/>
        <path d="M154.667 84.784h10.667" fill="#FFF" mask="url(#d)"/>
        <path fill="#132E99" mask="url(#d)" d="M154.667 85.784h10.667v-2h-10.667z"/>
        <path d="M112 138.118V127.45" fill="#FFF" mask="url(#d)"/>
        <path fill="#132E99" mask="url(#d)" d="M111 138.118h2v-10.667h-2z"/>
        <path d="M112 42.118V31.45" fill="#FFF" mask="url(#d)"/>
        <path fill="#132E99" mask="url(#d)" d="M111 42.118h2V31.451h-2z"/>
        <path d="M65.812 111.451l9.238-5.333" fill="#FFF" mask="url(#d)"/>
        <path fill="#132E99" mask="url(#d)" d="M66.312 112.317l-1-1.732 9.237-5.333 1 1.732z"/>
        <path d="M148.95 63.451l9.238-5.333" fill="#FFF" mask="url(#d)"/>
        <path fill="#132E99" mask="url(#d)" d="M149.45 64.317l-1-1.732 9.238-5.333 1 1.732z"/>
        <path d="M138.667 130.973l-5.333-9.238" fill="#FFF" mask="url(#d)"/>
        <path fill="#132E99" mask="url(#d)" d="M137.8 131.473l-5.333-9.237 1.732-1 5.333 9.237z"/>
        <path d="M90.667 47.834l-5.333-9.238" fill="#FFF" mask="url(#d)"/>
        <path fill="#132E99" mask="url(#d)" d="M89.8 48.334l-5.333-9.237 1.732-1 5.333 9.237z"/>
        <path d="M85.333 130.973l5.333-9.238" fill="#FFF" mask="url(#d)"/>
        <path fill="#132E99" mask="url(#d)" d="M86.2 131.473l-1.732-1 5.333-9.237 1.732 1z"/>
        <path d="M133.333 47.834l5.333-9.238" fill="#FFF" mask="url(#d)"/>
        <path fill="#132E99" mask="url(#d)" d="M134.2 48.334l-1.732-1 5.333-9.237 1.732 1z"/>
        <path d="M158.188 111.451l-9.238-5.333" fill="#FFF" mask="url(#d)"/>
        <path fill="#132E99" mask="url(#d)" d="M157.688 112.317l-9.238-5.333 1-1.732 9.238 5.333z"/>
        <path d="M75.05 63.451l-9.238-5.333" fill="#FFF" mask="url(#d)"/>
        <path fill="#132E99" mask="url(#d)" d="M74.55 64.317l-9.238-5.333 1-1.732 9.237 5.333z"/>
        <path fill="#FFF" mask="url(#d)" d="M112 47.451v37.333L96 95.451"/>
        <path fill="#132E99" mask="url(#d)" d="M96.555 96.283l-1.11-1.664L111 84.25V47.451h2V85.32z"/>
        <path fill="#FFF" mask="url(#d)" d="M144 154.118l-64-64-64 64"/>
        <path fill="#132E99" mask="url(#d)" d="M143.293 154.825L80 91.532l-63.293 63.293-1.414-1.414L80 88.704l64.707 64.707z"/>
        <path fill="#FFF" mask="url(#d)" d="M56 114.118l8 8 8-8 8 8 8-8 8 8 8-8"/>
        <path fill="#132E99" mask="url(#d)" d="M96 123.532l-8-8-8 8-8-8-8 8-8.707-8.707 1.414-1.414L64 120.704l8-8 8 8 8-8 8 8 7.293-7.293 1.414 1.414z"/>
        <path d="M122.667 141.621l-15.085-15.085c-8.331-8.33-8.331-21.839 0-30.17 8.33-8.33 21.839-8.33 30.17 0 8.33 8.331 8.33 21.84 0 30.17l-15.085 15.085z" fill="#F92855" mask="url(#d)"/>
        <path d="M112 111.451c0-5.89 4.776-10.667 10.667-10.667s10.666 4.776 10.666 10.667-4.775 10.667-10.666 10.667S112 117.342 112 111.451m16 37.334v21.333h42.667v-21.333" fill="#FFF" mask="url(#d)"/>
        <path fill="#132E99" mask="url(#d)" d="M171.667 171.118H127v-22.334h2v20.334h40.667v-20.334h2z"/>
        <path fill="#FFF" mask="url(#d)" d="M144 164.785h10.667v-10.667H144z"/>
        <path d="M145 163.784h8.667v-8.666H145v8.666zm-2 2h12.667v-12.666H143v12.666z" fill="#132E99" mask="url(#d)"/>
        <path fill="#FFF" mask="url(#d)" d="M128 148.785l21.333-21.334 21.334 21.334z"/>
        <path d="M130.414 147.784h37.838l-18.919-18.919-18.919 18.92zm42.667 2h-47.495l23.747-23.747 23.748 23.747z" fill="#132E99" mask="url(#d)"/>
    </g>
</svg>
