<svg viewBox="0 0 180 54" version="1.1" xmlns="http://www.w3.org/2000/svg" xmlns:xlink="http://www.w3.org/1999/xlink">
    <defs>
        <polygon id="path-1" points="0 53.5 179.192647 53.5 179.192647 0.037 0 0.037"></polygon>
    </defs>
    <g id="Landing-64" stroke="none" stroke-width="1" fill="none" fill-rule="evenodd">
        <g id="Desktop-1248-13" transform="translate(-124.000000, -183.000000)">
            <g id="logo-molnia-header" transform="translate(124.000000, 183.000000)">
                <polygon id="Fill-1" fill="#F92855" points="35.8724283 0.49985 20.0595607 16.47485 4.24669301 0.49985 4.24669301 32.81035 11.3937518 32.81035 11.3937518 17.14985 20.0595607 25.87985 28.7253695 17.14985 28.7253695 32.81035 35.8724283 32.81035"></polygon>
                <g id="Group-12" transform="translate(0.000000, 0.463000)">
                    <path d="M66.5419963,16.37205 C66.5419963,11.24205 62.6557831,6.96705 57.5188346,6.96705 C52.381886,6.96705 48.4956728,11.24205 48.4956728,16.37205 C48.4956728,21.50205 52.381886,25.77705 57.5188346,25.77705 C62.6557831,25.77705 66.5419963,21.50205 66.5419963,16.37205 L66.5419963,16.37205 Z M41.3039449,16.37205 C41.3039449,7.37205 48.585011,0.03705 57.5188346,0.03705 C66.4526581,0.03705 73.7337243,7.37205 73.7337243,16.37205 C73.7337243,25.37205 66.4526581,32.70705 57.5188346,32.70705 C48.585011,32.70705 41.3039449,25.37205 41.3039449,16.37205 L41.3039449,16.37205 Z" id="Fill-2" fill="#F92855"></path>
                    <polygon id="Fill-4" fill="#F92855" points="79.0577868 0.397 86.2048456 0.397 86.2048456 25.192 98.5335221 25.192 98.5335221 32.347 79.0577868 32.347"></polygon>
                    <polygon id="Fill-6" fill="#F92855" points="109.899381 15.65205 109.899381 32.34705 102.752322 32.34705 102.752322 0.03705 122.764086 17.09205 122.764086 0.39705 129.911145 0.39705 129.911145 32.70705"></polygon>
                    <mask id="mask-2" fill="white">
                        <use xlink:href="#path-1"></use>
                    </mask>
                    <g id="Clip-9"></g>
                    <polygon id="Fill-8" fill="#F92855" mask="url(#mask-2)" points="136.935662 32.347 144.082721 32.347 144.082721 0.397 136.935662 0.397"></polygon>
                    <path d="M166.551436,21.54705 L163.558605,14.88705 L160.565774,21.54705 L166.551436,21.54705 Z M163.558605,0.03705 L179.192796,32.34705 L171.688384,32.34705 L169.410259,27.39705 L157.70695,27.39705 L155.428825,32.34705 L147.924414,32.34705 L163.558605,0.03705 Z" id="Fill-10" fill="#F92855" mask="url(#mask-2)"></path>
                    <polygon id="Fill-11" fill="#F92855" mask="url(#mask-2)" points="34.1631397 53.5 40.1190221 47.5 23.2345919 47.5 31.1757684 39.5 5.95608088 39.5 0.000198529411 45.5 16.7972757 45.5 8.85609926 53.5"></polygon>
                </g>
            </g>
        </g>
    </g>
</svg>