<svg viewBox="0 0 180 54" xmlns="http://www.w3.org/2000/svg" xmlns:xlink="http://www.w3.org/1999/xlink">
    <defs>
        <path id="a" d="M0 53.5h179.193V.037H0z"/>
    </defs>
    <g fill="none" fill-rule="evenodd">
        <path fill="#F92855" d="M35.872.5L20.06 16.475 4.247.5v32.31h7.147V17.15l8.666 8.73 8.665-8.73v15.66h7.147z"/>
        <g transform="translate(0 .463)">
            <path d="M66.542 16.372c0-5.13-3.886-9.405-9.023-9.405s-9.023 4.275-9.023 9.405c0 5.13 3.886 9.405 9.023 9.405s9.023-4.275 9.023-9.405zm-25.238 0c0-9 7.281-16.335 16.215-16.335 8.934 0 16.215 7.335 16.215 16.335s-7.281 16.335-16.215 16.335c-8.934 0-16.215-7.335-16.215-16.335zM79.058.397h7.147v24.795h12.329v7.155H79.058zM109.9 15.652v16.695h-7.148V.037l20.012 17.055V.397h7.147v32.31z" fill="#F92855"/>
            <mask id="b" fill="#fff">
                <use xlink:href="#a"/>
            </mask>
            <path fill="#F92855" mask="url(#b)" d="M136.936 32.347h7.147V.397h-7.147zm29.615-10.8l-2.992-6.66-2.993 6.66h5.985zM163.56.037l15.634 32.31h-7.505l-2.278-4.95h-11.703l-2.278 4.95h-7.505L163.56.037zM34.163 53.5l5.956-6H23.235l7.94-8H5.957L0 45.5h16.797l-7.94 8z"/>
        </g>
    </g>
</svg>
