<?xml version="1.0" encoding="UTF-8"?>
<svg width="192px" height="192px" viewBox="0 0 192 192" version="1.1" xmlns="http://www.w3.org/2000/svg" xmlns:xlink="http://www.w3.org/1999/xlink">
    <!-- Generator: sketchtool 41 (35326) - http://www.bohemiancoding.com/sketch -->
    <title>317A2D61-20DD-4C8F-A776-55CDD99486E9</title>
    <desc>Created with sketchtool.</desc>
    <defs>
        <rect id="path-1" x="0" y="0" width="1280" height="608"></rect>
        <mask id="mask-2" maskContentUnits="userSpaceOnUse" maskUnits="objectBoundingBox" x="0" y="0" width="1280" height="608" fill="white">
            <use xlink:href="#path-1"></use>
        </mask>
    </defs>
    <g id="Landing-64" stroke="none" stroke-width="1" fill="none" fill-rule="evenodd">
        <g id="Desktop-1248-13" transform="translate(-928.000000, -800.000000)">
            <g id="Group-13" transform="translate(0.000000, 704.000000)" stroke-width="24" stroke="#F92855" fill="#FFFFFF">
                <g id="Group-11">
                    <g id="Group-10">
                        <g id="Group-9">
                            <use id="Rectangle-Copy-2" mask="url(#mask-2)" xlink:href="#path-1"></use>
                        </g>
                    </g>
                </g>
            </g>
            <g id="nam-yasno-s-poluslova" transform="translate(928.000000, 800.000000)">
                <polygon id="Fill-1" fill="#FFFFFF" points="0 192 192 192 192 0 0 0"></polygon>
                <g id="Group-30" transform="translate(8.000000, 43.000000)">
                    <path d="M149.963,55.143 L53.963,55.143 C45.163,55.143 37.963,62.343 37.963,71.143 C37.963,79.943 45.163,87.143 53.963,87.143 L139.296,87.143 L149.963,103.143 L149.963,87.143 C158.763,87.143 165.963,79.943 165.963,71.143 C165.963,62.343 158.763,55.143 149.963,55.143" id="Fill-2" fill="#132E99"></path>
                    <path d="M117.963,1.8097 L21.963,1.8097 C13.163,1.8097 5.963,9.0097 5.963,17.8097 C5.963,26.6097 13.163,33.8097 21.963,33.8097 L29.963,33.8097 L29.963,49.8097 L40.63,33.8097 L117.963,33.8097 C126.763,33.8097 133.963,26.6097 133.963,17.8097 C133.963,9.0097 126.763,1.8097 117.963,1.8097" id="Fill-4" fill="#FFFFFF"></path>
                    <path d="M21.9629,2.81 C13.6919,2.81 6.9629,9.539 6.9629,17.81 C6.9629,26.081 13.6919,32.81 21.9629,32.81 L30.9629,32.81 L30.9629,46.507 L40.0949,32.81 L117.9629,32.81 C126.2339,32.81 132.9629,26.081 132.9629,17.81 C132.9629,9.539 126.2339,2.81 117.9629,2.81 L21.9629,2.81 Z M28.9629,53.113 L28.9629,34.81 L21.9629,34.81 C12.5889,34.81 4.9629,27.184 4.9629,17.81 C4.9629,8.436 12.5889,0.81 21.9629,0.81 L117.9629,0.81 C127.3369,0.81 134.9629,8.436 134.9629,17.81 C134.9629,27.184 127.3369,34.81 117.9629,34.81 L41.1649,34.81 L28.9629,53.113 Z" id="Fill-6" fill="#F92855"></path>
                    <path d="M53.963,25.8097 L53.963,25.8097 C51.763,25.8097 49.963,24.0097 49.963,21.8097 L49.963,21.8097 C49.963,19.6097 51.763,17.8097 53.963,17.8097 L53.963,17.8097 C56.163,17.8097 57.963,19.6097 57.963,21.8097 L57.963,21.8097 C57.963,24.0097 56.163,25.8097 53.963,25.8097" id="Fill-8" fill="#132E99"></path>
                    <path d="M69.963,25.8097 L69.963,25.8097 C67.763,25.8097 65.963,24.0097 65.963,21.8097 L65.963,21.8097 C65.963,19.6097 67.763,17.8097 69.963,17.8097 L69.963,17.8097 C72.163,17.8097 73.963,19.6097 73.963,21.8097 L73.963,21.8097 C73.963,24.0097 72.163,25.8097 69.963,25.8097" id="Fill-10" fill="#132E99"></path>
                    <path d="M85.963,25.8097 L85.963,25.8097 C83.763,25.8097 81.963,24.0097 81.963,21.8097 L81.963,21.8097 C81.963,19.6097 83.763,17.8097 85.963,17.8097 L85.963,17.8097 C88.163,17.8097 89.963,19.6097 89.963,21.8097 L89.963,21.8097 C89.963,24.0097 88.163,25.8097 85.963,25.8097" id="Fill-12" fill="#132E99"></path>
                    <path d="M94.8413,75.9308 C95.4723,75.9308 96.0583,75.8108 96.6013,75.5678 C97.1443,75.3258 97.6133,74.9958 98.0093,74.5778 C98.4053,74.1598 98.7173,73.6728 98.9453,73.1148 C99.1723,72.5578 99.2853,71.9638 99.2853,71.3328 C99.2853,70.7018 99.1723,70.1088 98.9453,69.5508 C98.7173,68.9938 98.4053,68.5068 98.0093,68.0888 C97.6133,67.6698 97.1443,67.3408 96.6013,67.0978 C96.0583,66.8558 95.4723,66.7348 94.8413,66.7348 C94.2113,66.7348 93.6243,66.8558 93.0813,67.0978 C92.5383,67.3408 92.0703,67.6698 91.6733,68.0888 C91.2773,68.5068 90.9653,68.9938 90.7383,69.5508 C90.5113,70.1088 90.3973,70.7018 90.3973,71.3328 C90.3973,71.9638 90.5113,72.5578 90.7383,73.1148 C90.9653,73.6728 91.2773,74.1598 91.6733,74.5778 C92.0703,74.9958 92.5383,75.3258 93.0813,75.5678 C93.6243,75.8108 94.2113,75.9308 94.8413,75.9308 M94.8413,79.3188 C93.7413,79.3188 92.7083,79.1098 91.7393,78.6918 C90.7713,78.2738 89.9243,77.7018 89.1983,76.9758 C88.4733,76.2498 87.9003,75.4028 87.4823,74.4358 C87.0643,73.4668 86.8553,72.4328 86.8553,71.3328 C86.8553,70.2328 87.0643,69.1988 87.4823,68.2308 C87.9003,67.2628 88.4733,66.4158 89.1983,65.6898 C89.9243,64.9638 90.7713,64.3918 91.7393,63.9738 C92.7083,63.5558 93.7413,63.3468 94.8413,63.3468 C95.9413,63.3468 96.9753,63.5558 97.9433,63.9738 C98.9113,64.3918 99.7583,64.9638 100.4843,65.6898 C101.2103,66.4158 101.7823,67.2628 102.2003,68.2308 C102.6183,69.1988 102.8273,70.2328 102.8273,71.3328 C102.8273,72.4328 102.6183,73.4668 102.2003,74.4358 C101.7823,75.4028 101.2103,76.2498 100.4843,76.9758 C99.7583,77.7018 98.9113,78.2738 97.9433,78.6918 C96.9753,79.1098 95.9413,79.3188 94.8413,79.3188" id="Fill-14" fill="#FFFFFF"></path>
                    <polygon id="Fill-16" fill="#FFFFFF" points="104.5301 63.5232 108.0501 63.5232 108.0501 71.3552 113.5061 63.5232 117.5541 63.5232 112.0761 71.3992 118.2581 79.1432 113.9021 79.1432 108.0501 71.8172 108.0501 79.1432 104.5301 79.1432"></polygon>
                    <polygon id="Fill-18" fill="#132E99" points="173.9006 120.1904 176.9006 117.1904 168.3956 117.1904 172.3956 113.1904 159.6296 113.1904 156.6296 116.1904 165.1536 116.1904 161.1526 120.1904"></polygon>
                    <polygon id="Fill-20" fill="#F92855" points="158.7623 93.3333 166.7653 101.3583 174.7683 93.3333 174.7683 109.5653 171.1513 109.5653 171.1513 101.6983 166.7653 106.0833 162.3793 101.6983 162.3793 109.5653 158.7623 109.5653"></polygon>
                    <path d="M0.6297,52.4763 C0.6297,46.5853 5.4057,41.8093 11.2967,41.8093 C17.1877,41.8093 21.9627,46.5853 21.9627,52.4763 C21.9627,58.3673 17.1877,63.1433 11.2967,63.1433 C5.4057,63.1433 0.6297,58.3673 0.6297,52.4763" id="Fill-22" fill="#132E99"></path>
                    <path d="M16.6297,53.964 C16.6297,56.91 14.2417,59.297 11.2967,59.297 C8.3507,59.297 5.9627,56.91 5.9627,53.964" id="Fill-24" fill="#FFFFFF"></path>
                    <path d="M6.963,49.964 C6.963,50.516 6.515,50.964 5.963,50.964 C5.411,50.964 4.963,50.516 4.963,49.964 C4.963,49.412 5.411,48.964 5.963,48.964 C6.515,48.964 6.963,49.412 6.963,49.964" id="Fill-26" fill="#FFFFFF"></path>
                    <path d="M17.6297,49.964 C17.6297,50.516 17.1817,50.964 16.6297,50.964 C16.0777,50.964 15.6297,50.516 15.6297,49.964 C15.6297,49.412 16.0777,48.964 16.6297,48.964 C17.1817,48.964 17.6297,49.412 17.6297,49.964" id="Fill-28" fill="#FFFFFF"></path>
                </g>
            </g>
        </g>
    </g>
</svg>