<svg width="192" height="192" viewBox="0 0 192 192" xmlns="http://www.w3.org/2000/svg" xmlns:xlink="http://www.w3.org/1999/xlink">
    <title>
        317A2D61-20DD-4C8F-A776-55CDD99486E9
    </title>
    <defs>
        <path id="a" d="M0 0h1280v608H0z"/>
        <mask id="b" x="0" y="0" width="1280" height="608" fill="#fff">
            <use xlink:href="#a"/>
        </mask>
    </defs>
    <g fill="none" fill-rule="evenodd">
        <use mask="url(#b)" xlink:href="#a" transform="translate(-928 -96)" stroke-width="24" stroke="#F92855" fill="#FFF"/>
        <path fill="#FFF" d="M0 192h192V0H0z"/>
        <path d="M157.963 98.143h-96c-8.8 0-16 7.2-16 16s7.2 16 16 16h85.333l10.667 16v-16c8.8 0 16-7.2 16-16s-7.2-16-16-16" fill="#132E99"/>
        <path d="M125.963 44.81h-96c-8.8 0-16 7.2-16 16s7.2 16 16 16h8v16l10.667-16h77.333c8.8 0 16-7.2 16-16s-7.2-16-16-16" fill="#FFF"/>
        <path d="M29.963 45.81c-8.271 0-15 6.729-15 15s6.729 15 15 15h9v13.697l9.132-13.697h77.868c8.27 0 15-6.729 15-15s-6.73-15-15-15h-96zm7 50.303V77.81h-7c-9.374 0-17-7.626-17-17 0-9.374 7.626-17 17-17h96c9.374 0 17 7.626 17 17 0 9.374-7.626 17-17 17H49.165L36.963 96.113z" fill="#F92855"/>
        <path d="M61.963 68.81c-2.2 0-4-1.8-4-4s1.8-4 4-4 4 1.8 4 4-1.8 4-4 4m16 0c-2.2 0-4-1.8-4-4s1.8-4 4-4 4 1.8 4 4-1.8 4-4 4m16 0c-2.2 0-4-1.8-4-4s1.8-4 4-4 4 1.8 4 4-1.8 4-4 4" fill="#132E99"/>
        <path d="M102.841 118.93c.631 0 1.217-.12 1.76-.362a4.364 4.364 0 0 0 1.408-.99 4.676 4.676 0 0 0 1.276-3.245 4.68 4.68 0 0 0-1.276-3.244 4.367 4.367 0 0 0-1.408-.991 4.272 4.272 0 0 0-1.76-.363c-.63 0-1.217.12-1.76.363a4.377 4.377 0 0 0-1.408.99 4.66 4.66 0 0 0-.935 1.463 4.68 4.68 0 0 0-.34 1.782c0 .63.113 1.225.34 1.782.227.558.54 1.045.935 1.463.397.418.865.748 1.408.99a4.26 4.26 0 0 0 1.76.363m0 3.388a7.76 7.76 0 0 1-3.102-.627 8.094 8.094 0 0 1-2.54-1.716 8.118 8.118 0 0 1-1.717-2.54 7.749 7.749 0 0 1-.627-3.103c0-1.1.21-2.134.627-3.102a8.111 8.111 0 0 1 1.716-2.541 8.094 8.094 0 0 1 2.541-1.716 7.744 7.744 0 0 1 3.102-.627c1.1 0 2.134.209 3.102.627.968.418 1.815.99 2.541 1.716a8.094 8.094 0 0 1 1.716 2.54 7.74 7.74 0 0 1 .627 3.103c0 1.1-.209 2.134-.627 3.103a8.101 8.101 0 0 1-1.716 2.54 8.094 8.094 0 0 1-2.54 1.716 7.74 7.74 0 0 1-3.103.627m9.689-15.796h3.52v7.832l5.456-7.832h4.048l-5.478 7.876 6.182 7.744h-4.356l-5.852-7.326v7.326h-3.52z" fill="#FFF"/>
        <path fill="#132E99" d="M181.9 163.19l3-3h-8.504l4-4H167.63l-3 3h8.524l-4.001 4z"/>
        <path fill="#F92855" d="M166.762 136.333l8.003 8.025 8.003-8.025v16.232h-3.617v-7.867l-4.386 4.385-4.386-4.385v7.867h-3.617z"/>
        <path d="M8.63 95.476c0-5.89 4.776-10.667 10.667-10.667 5.89 0 10.666 4.776 10.666 10.667s-4.775 10.667-10.666 10.667S8.63 101.367 8.63 95.476" fill="#132E99"/>
        <path d="M24.63 96.964a5.333 5.333 0 1 1-10.667 0m1-4a1 1 0 1 1-2 0 1 1 0 0 1 2 0m10.667 0a1 1 0 1 1-2.001 0 1 1 0 0 1 2 0" fill="#FFF"/>
    </g>
</svg>
