<svg version="1.1" xmlns="http://www.w3.org/2000/svg" viewBox="-285 408.9 24 24">
	<path id="Fill-1" fill="#F92855" d="M-285,420.9c0-6.6,5.4-12,12-12s12,5.4,12,12c0,6.6-5.4,12-12,12S-285,427.5-285,420.9"/>
	<path id="Fill-3" fill="#FFFFFF" d="M-267,422.9c0,3.3-2.7,6-6,6s-6-2.7-6-6"/>
	<path id="Fill-7-Copy" fill="#132E99" d="M-277,418.4c0,0.8-0.7,1.5-1.5,1.5s-1.5-0.7-1.5-1.5c0-0.8,0.7-1.5,1.5-1.5
	S-277,417.6-277,418.4"/>
	<rect x="-270" y="417.9" fill="#132E99" width="5" height="1"/>
</svg>
