<svg width="24px" height="24px" viewBox="0 0 24 24" version="1.1" xmlns="http://www.w3.org/2000/svg" xmlns:xlink="http://www.w3.org/1999/xlink">
    <!-- Generator: sketchtool 41 (35326) - http://www.bohemiancoding.com/sketch -->
    <title>60C69934-5D88-47C8-A01B-DDBC2A3BBD0C</title>
    <desc>Created with sketchtool.</desc>
    <defs></defs>
    <g id="Landing-64" stroke="none" stroke-width="1" fill="none" fill-rule="evenodd">
        <g id="Desktop-1248-13" transform="translate(-1056.000000, -109.000000)">
            <g id="link-login" transform="translate(1056.000000, 106.000000)">
                <g id="smile" transform="translate(0.000000, 3.000000)">
                    <path d="M0,12 C0,5.372625 5.372625,0 12,0 C18.627375,0 24,5.372625 24,12 C24,18.627375 18.627375,24 12,24 C5.372625,24 0,18.627375 0,12" id="Fill-1" fill="#F92855"></path>
                    <path d="M18,14 C18,17.3136875 15.3136875,20 12,20 C8.6863125,20 6,17.3136875 6,14" id="Fill-3" fill="#FFFFFF"></path>
                    <path d="M19,9.5 C19,10.3285 18.3285,11 17.5,11 C16.6715,11 16,10.3285 16,9.5 C16,8.6715 16.6715,8 17.5,8 C18.3285,8 19,8.6715 19,9.5" id="Fill-7" fill="#132E99"></path>
                    <path d="M8,9.5 C8,10.3285 7.3285,11 6.5,11 C5.6715,11 5,10.3285 5,9.5 C5,8.6715 5.6715,8 6.5,8 C7.3285,8 8,8.6715 8,9.5" id="Fill-7-Copy" fill="#132E99"></path>
                </g>
            </g>
        </g>
    </g>
</svg>