<svg viewBox="0 0 33 32" xmlns="http://www.w3.org/2000/svg">
    <path d="M24.69 18.588c1.75 1.627 2.113 2.417 2.177 2.519.712 1.2-.812 1.293-.812 1.293h-.004l-2.926.044s-.632.127-1.457-.444c-1.093-.75-2.125-2.705-2.93-2.45-.814.257-.79 2.011-.79 2.011s.007.378-.181.575c-.2.219-.6.261-.6.261H15.86s-2.888.178-5.43-2.476c-2.777-2.888-5.225-8.617-5.225-8.617s-.145-.376.012-.556c.174-.207.643-.217.643-.217l3.133-.019s.294.05.506.207c.176.125.268.368.268.368s.506 1.281 1.176 2.437c1.305 2.256 1.917 2.75 2.361 2.512.644-.35.45-3.195.45-3.195s.013-1.03-.323-1.486c-.263-.356-.756-.463-.968-.49-.176-.025.112-.43.488-.617.562-.276 1.556-.295 2.732-.281.912.005 1.181.066 1.537.149 1.083.263.713 1.268.713 3.683 0 .776-.138 1.861.418 2.217.237.156.824.024 2.293-2.468.695-1.183 1.219-2.568 1.219-2.568s.112-.25.288-.356c.181-.105.426-.073.426-.073l3.294-.019s.988-.117 1.15.332c.168.468-.368 1.561-1.713 3.356-2.205 2.944-2.455 2.668-.617 4.368M25.089 0H6.976C3.124 0 0 3.139 0 7.01v17.98C0 28.86 3.124 32 6.976 32h18.113c3.854 0 6.978-3.139 6.978-7.01V7.01c0-3.871-3.124-7.01-6.978-7.01" fill="#FFF" fill-rule="evenodd"/>
</svg>
