<?xml version="1.0" encoding="UTF-8"?>
<svg width="33px" height="32px" viewBox="0 0 33 32" version="1.1" xmlns="http://www.w3.org/2000/svg" xmlns:xlink="http://www.w3.org/1999/xlink">
    <!-- Generator: sketchtool 41 (35326) - http://www.bohemiancoding.com/sketch -->
    <title>D84D3987-2C69-495D-913F-7A1E186F1FF4</title>
    <desc>Created with sketchtool.</desc>
    <defs></defs>
    <g id="Landing-64" stroke="none" stroke-width="1" fill="none" fill-rule="evenodd">
        <g id="Desktop-1248-13-(open-menu)" transform="translate(-288.000000, -576.000000)" fill="#FFFFFF">
            <g id="Group" transform="translate(80.000000, 120.000000)">
                <g id="Group-7" transform="translate(144.000000, 456.000000)">
                    <path d="M88.6906667,18.588 C90.44,20.2146667 90.8026667,21.0053333 90.8666667,21.1066667 C91.5786667,22.3066667 90.0546667,22.4 90.0546667,22.4 L90.0506667,22.4 L87.1253333,22.444 C87.1253333,22.444 86.4933333,22.5706667 85.668,22 C84.5746667,21.2506667 83.5426667,19.2946667 82.7373333,19.5506667 C81.924,19.8066667 81.948,21.5613333 81.948,21.5613333 C81.948,21.5613333 81.9546667,21.9386667 81.7666667,22.136 C81.5666667,22.3546667 81.1666667,22.3973333 81.1666667,22.3973333 L79.86,22.3973333 C79.86,22.3973333 76.972,22.5746667 74.4293333,19.9213333 C71.6533333,17.0333333 69.2053333,11.304 69.2053333,11.304 C69.2053333,11.304 69.06,10.928 69.2173333,10.748 C69.3906667,10.5413333 69.86,10.5306667 69.86,10.5306667 L72.9933333,10.512 C72.9933333,10.512 73.2866667,10.5613333 73.4986667,10.7186667 C73.6746667,10.844 73.7666667,11.0866667 73.7666667,11.0866667 C73.7666667,11.0866667 74.2733333,12.368 74.9426667,13.524 C76.248,15.78 76.86,16.2746667 77.304,16.036 C77.948,15.6866667 77.7546667,12.8413333 77.7546667,12.8413333 C77.7546667,12.8413333 77.7666667,11.8106667 77.4306667,11.3546667 C77.168,10.9986667 76.6746667,10.892 76.4626667,10.8653333 C76.2866667,10.84 76.5746667,10.4346667 76.9506667,10.248 C77.5133333,9.972 78.5066667,9.95333333 79.6826667,9.96666667 C80.5946667,9.972 80.864,10.0333333 81.22,10.116 C82.3026667,10.3786667 81.9333333,11.384 81.9333333,13.7986667 C81.9333333,14.5746667 81.7946667,15.66 82.3506667,16.016 C82.588,16.172 83.1746667,16.04 84.644,13.548 C85.3386667,12.3653333 85.8626667,10.98 85.8626667,10.98 C85.8626667,10.98 85.9746667,10.7293333 86.1506667,10.624 C86.332,10.5186667 86.5773333,10.5506667 86.5773333,10.5506667 L89.8706667,10.532 C89.8706667,10.532 90.8586667,10.4146667 91.0213333,10.864 C91.1893333,11.332 90.6533333,12.4253333 89.308,14.22 C87.1026667,17.164 86.8533333,16.888 88.6906667,18.588 M89.0893333,0 L70.976,0 C67.124,0 64,3.13866667 64,7.01066667 L64,24.9893333 C64,28.8613333 67.124,32 70.976,32 L79.9933333,32 L89.0893333,32 C92.9426667,32 96.0666667,28.8613333 96.0666667,24.9893333 L96.0666667,7.01066667 C96.0666667,3.13866667 92.9426667,0 89.0893333,0" id="soc-icon-vk"></path>
                </g>
            </g>
        </g>
    </g>
</svg>