<svg viewBox="0 0 33 32" xmlns="http://www.w3.org/2000/svg" xmlns:xlink="http://www.w3.org/1999/xlink">
    <defs>
        <path id="a" d="M32.066 0H.001v32h32.065V0z"/>
    </defs>
    <g fill="none" fill-rule="evenodd">
        <mask id="b" fill="#fff">
            <use xlink:href="#a"/>
        </mask>
        <path d="M28.111 21.162a7.28 7.28 0 0 1-7.272 7.272h-9.613c-4.01 0-7.27-3.263-7.27-7.272V10.905c0-4.01 3.26-7.272 7.27-7.272h9.613a7.28 7.28 0 0 1 7.272 7.272v10.257zM25.09 0H6.977C3.123 0 0 3.14 0 7.01v17.98C0 28.86 3.123 32 6.977 32H25.09c3.853 0 6.976-3.14 6.976-7.01V7.01c0-3.872-3.123-7.01-6.976-7.01z" fill="#FFF" mask="url(#b)"/>
        <path d="M15.986 12.318h-.1a3.43 3.43 0 0 0-2.482 1.075A3.735 3.735 0 0 0 12.352 16a3.685 3.685 0 0 0 3.68 3.681c2.02 0 3.637-1.632 3.682-3.716.018-.736-.118-1.779-.852-2.563-.63-.673-1.625-1.048-2.876-1.084" fill="#FFF"/>
        <path d="M22.544 10.947a1.483 1.483 0 1 1 0-2.966 1.483 1.483 0 0 1 0 2.966m-1.658 9.92a6.785 6.785 0 0 1-4.853 2.024A6.899 6.899 0 0 1 9.143 16c0-3.867 3.129-7.001 6.937-6.89 2.125.062 3.897.787 5.124 2.098 1.166 1.245 1.76 2.915 1.72 4.827a7.044 7.044 0 0 1-2.038 4.832M20.84 6.259h-9.614a4.65 4.65 0 0 0-4.645 4.645v10.259a4.65 4.65 0 0 0 4.645 4.645h9.614a4.651 4.651 0 0 0 4.646-4.645V10.904a4.651 4.651 0 0 0-4.646-4.645" fill="#FFF"/>
    </g>
</svg>
