<svg width="192" height="192" viewBox="0 0 192 192" xmlns="http://www.w3.org/2000/svg" xmlns:xlink="http://www.w3.org/1999/xlink">
    <title>
        5EFE4983-2949-4884-9419-D67A403134F0
    </title>
    <defs>
        <path id="a" d="M0 0h1280v608H0z"/>
        <mask id="b" x="0" y="0" width="1280" height="608" fill="#fff">
            <use xlink:href="#a"/>
        </mask>
        <path id="c" d="M0 192h192V0H0z"/>
    </defs>
    <g fill="none" fill-rule="evenodd">
        <use mask="url(#b)" xlink:href="#a" transform="translate(-160 -96)" stroke-width="24" stroke="#F92855" fill="#FFF"/>
        <path fill="#FFF" d="M175.352 98.673l-64-64-64 64"/>
        <path fill="#F92855" d="M174.645 99.38l-63.293-63.294L48.06 99.38l-1.413-1.414 64.707-64.707 64.707 64.707z"/>
        <path fill="#FFF" d="M87.352 58.673l8 8 8-8 8 8 8-8 8 8 8-8"/>
        <path fill="#F92855" d="M127.353 68.086l-8-8-8 8-8-8-8 8-8.707-8.707 1.414-1.414 7.293 7.293 8-8 8 8 8-8 8 8 7.293-7.293 1.414 1.414z"/>
        <path d="M146.02 81.758l-7.543-7.542c-4.166-4.166-4.166-10.92 0-15.085 4.165-4.166 10.92-4.166 15.084 0 4.166 4.165 4.166 10.919 0 15.085l-7.542 7.542zm-16 85.333l-7.543-7.542c-4.166-4.166-4.166-10.92 0-15.085 4.165-4.166 10.92-4.166 15.084 0 4.166 4.165 4.166 10.919 0 15.085l-7.542 7.542z" fill="#132E99"/>
        <path d="M146.02 98.673c0 8.837-7.164 16-16 16-8.838 0-16-7.163-16-16s7.162-16 16-16c8.836 0 16 7.163 16 16" fill="#FFF"/>
        <path d="M130.02 83.672c-8.272 0-15 6.73-15 15 0 8.271 6.728 15 15 15 8.27 0 15-6.729 15-15 0-8.27-6.73-15-15-15m0 32c-9.375 0-17-7.626-17-17 0-9.374 7.625-17 17-17 9.373 0 17 7.626 17 17 0 9.374-7.627 17-17 17" fill="#F92855"/>
        <path d="M130.02 98.673v32" fill="#FFF"/>
        <mask id="d" fill="#fff">
            <use xlink:href="#c"/>
        </mask>
        <path fill="#F92855" mask="url(#d)" d="M129.019 130.672h2v-32h-2z"/>
        <path d="M170.02 130.673c0 8.837-7.164 16-16 16-8.838 0-16-7.163-16-16s7.162-16 16-16c8.836 0 16 7.163 16 16" fill="#FFF" mask="url(#d)"/>
        <path d="M154.02 115.672c-8.272 0-15 6.73-15 15 0 8.271 6.728 15 15 15 8.27 0 15-6.729 15-15 0-8.27-6.73-15-15-15m0 32c-9.375 0-17-7.626-17-17 0-9.374 7.625-17 17-17 9.373 0 17 7.626 17 17 0 9.374-7.627 17-17 17" fill="#F92855" mask="url(#d)"/>
        <path d="M154.02 130.673v32" fill="#FFF" mask="url(#d)"/>
        <path fill="#F92855" mask="url(#d)" d="M153.019 162.672h2v-32h-2z"/>
        <path d="M122.02 130.673c0 8.837-7.164 16-16 16-8.838 0-16-7.163-16-16s7.162-16 16-16c8.836 0 16 7.163 16 16" fill="#FFF" mask="url(#d)"/>
        <path d="M106.02 115.672c-8.272 0-15 6.73-15 15 0 8.271 6.728 15 15 15 8.27 0 15-6.729 15-15 0-8.27-6.73-15-15-15m0 32c-9.375 0-17-7.626-17-17 0-9.374 7.625-17 17-17 9.373 0 17 7.626 17 17 0 9.374-7.627 17-17 17" fill="#F92855" mask="url(#d)"/>
        <path d="M106.02 130.673v32" fill="#FFF" mask="url(#d)"/>
        <path fill="#F92855" mask="url(#d)" d="M105.019 162.672h2v-32h-2z"/>
        <path d="M18.02 115.34c3.195 0 3.195 4 6.392 4 3.198 0 3.198-4 6.396-4 3.2 0 3.2 4 6.4 4 3.198 0 3.198-4 6.398-4 3.2 0 3.2 4 6.398 4 3.201 0 3.201-4 6.401-4 3.2 0 3.2 4 6.397 4 3.202 0 3.202-4 6.403-4 3.203 0 3.203 4 6.407 4 3.203 0 3.203-4 6.407-4" fill="#FFF" mask="url(#d)"/>
        <path d="M75.612 120.34c-2.082 0-3.137-1.317-3.984-2.376-.831-1.038-1.353-1.625-2.423-1.625-1.068 0-1.59.587-2.421 1.625-.847 1.06-1.901 2.375-3.982 2.375-2.08 0-3.133-1.317-3.98-2.376-.83-1.037-1.35-1.624-2.417-1.624-1.067 0-1.59.587-2.42 1.625-.846 1.058-1.9 2.375-3.98 2.375s-3.134-1.317-3.98-2.375c-.83-1.038-1.352-1.625-2.42-1.625-1.066 0-1.588.587-2.418 1.624-.846 1.06-1.9 2.376-3.98 2.376s-3.134-1.317-3.98-2.375c-.83-1.038-1.352-1.625-2.42-1.625-1.065 0-1.587.587-2.416 1.625-.846 1.058-1.9 2.375-3.98 2.375-2.078 0-3.131-1.317-3.977-2.376-.83-1.037-1.35-1.624-2.415-1.624v-2c2.079 0 3.132 1.317 3.978 2.376.829 1.037 1.35 1.624 2.415 1.624 1.066 0 1.588-.587 2.417-1.624.846-1.059 1.899-2.376 3.979-2.376s3.134 1.317 3.98 2.375c.83 1.038 1.352 1.625 2.419 1.625s1.589-.587 2.419-1.625c.846-1.058 1.9-2.375 3.98-2.375s3.134 1.317 3.98 2.376c.83 1.037 1.352 1.624 2.419 1.624s1.589-.587 2.419-1.625c.847-1.058 1.9-2.375 3.98-2.375s3.134 1.317 3.98 2.375c.83 1.038 1.352 1.625 2.418 1.625 1.068 0 1.59-.587 2.42-1.625.848-1.058 1.902-2.375 3.983-2.375 2.082 0 3.136 1.316 3.984 2.375.83 1.038 1.354 1.625 2.423 1.625s1.592-.587 2.423-1.625c.848-1.059 1.902-2.375 3.984-2.375v2c-1.07 0-1.592.587-2.423 1.625-.847 1.06-1.902 2.375-3.984 2.375" fill="#F92855" mask="url(#d)"/>
        <path d="M18.02 123.34c3.195 0 3.195 4 6.392 4 3.198 0 3.198-4 6.396-4 3.2 0 3.2 4 6.4 4 3.198 0 3.198-4 6.398-4 3.2 0 3.2 4 6.398 4 3.201 0 3.201-4 6.401-4 3.2 0 3.2 4 6.397 4 3.202 0 3.202-4 6.403-4 3.203 0 3.203 4 6.407 4 3.203 0 3.203-4 6.407-4" fill="#FFF" mask="url(#d)"/>
        <path d="M75.612 128.34c-2.082 0-3.137-1.317-3.984-2.376-.831-1.038-1.353-1.625-2.423-1.625-1.068 0-1.59.587-2.421 1.625-.847 1.06-1.901 2.375-3.982 2.375-2.08 0-3.133-1.317-3.98-2.376-.83-1.037-1.35-1.624-2.417-1.624-1.067 0-1.59.587-2.42 1.625-.846 1.058-1.9 2.375-3.98 2.375s-3.134-1.317-3.98-2.375c-.83-1.038-1.352-1.625-2.42-1.625-1.066 0-1.588.587-2.418 1.624-.846 1.06-1.9 2.376-3.98 2.376s-3.134-1.317-3.98-2.375c-.83-1.038-1.352-1.625-2.42-1.625-1.065 0-1.587.587-2.416 1.625-.846 1.058-1.9 2.375-3.98 2.375-2.078 0-3.131-1.317-3.977-2.376-.83-1.037-1.35-1.624-2.415-1.624v-2c2.079 0 3.132 1.317 3.978 2.376.829 1.037 1.35 1.624 2.415 1.624 1.066 0 1.588-.587 2.417-1.624.846-1.059 1.899-2.376 3.979-2.376s3.134 1.317 3.98 2.375c.83 1.038 1.352 1.625 2.419 1.625s1.589-.587 2.419-1.625c.846-1.058 1.9-2.375 3.98-2.375s3.134 1.317 3.98 2.376c.83 1.037 1.352 1.624 2.419 1.624s1.589-.587 2.419-1.625c.847-1.058 1.9-2.375 3.98-2.375s3.134 1.317 3.98 2.375c.83 1.038 1.352 1.625 2.418 1.625 1.068 0 1.59-.587 2.42-1.625.848-1.058 1.902-2.375 3.983-2.375 2.082 0 3.136 1.316 3.984 2.375.83 1.038 1.354 1.625 2.423 1.625s1.592-.587 2.423-1.625c.848-1.059 1.902-2.375 3.984-2.375v2c-1.07 0-1.592.587-2.423 1.625-.847 1.06-1.902 2.375-3.984 2.375" fill="#F92855" mask="url(#d)"/>
        <path d="M18.02 131.34c3.195 0 3.195 4 6.392 4 3.198 0 3.198-4 6.396-4 3.2 0 3.2 4 6.4 4 3.198 0 3.198-4 6.398-4 3.2 0 3.2 4 6.398 4 3.201 0 3.201-4 6.401-4 3.2 0 3.2 4 6.397 4 3.202 0 3.202-4 6.403-4 3.203 0 3.203 4 6.407 4 3.203 0 3.203-4 6.407-4" fill="#FFF" mask="url(#d)"/>
        <path d="M75.612 136.34c-2.082 0-3.137-1.317-3.984-2.376-.831-1.038-1.353-1.625-2.423-1.625-1.068 0-1.59.587-2.421 1.625-.847 1.06-1.901 2.375-3.982 2.375-2.08 0-3.133-1.317-3.98-2.376-.83-1.037-1.35-1.624-2.417-1.624-1.067 0-1.59.587-2.42 1.625-.846 1.058-1.9 2.375-3.98 2.375s-3.134-1.317-3.98-2.375c-.83-1.038-1.352-1.625-2.42-1.625-1.066 0-1.588.587-2.418 1.624-.846 1.06-1.9 2.376-3.98 2.376s-3.134-1.317-3.98-2.375c-.83-1.038-1.352-1.625-2.42-1.625-1.065 0-1.587.587-2.416 1.625-.846 1.058-1.9 2.375-3.98 2.375-2.078 0-3.131-1.317-3.977-2.376-.83-1.037-1.35-1.624-2.415-1.624v-2c2.079 0 3.132 1.317 3.978 2.376.829 1.037 1.35 1.624 2.415 1.624 1.066 0 1.588-.587 2.417-1.624.846-1.059 1.899-2.376 3.979-2.376s3.134 1.317 3.98 2.375c.83 1.038 1.352 1.625 2.419 1.625s1.589-.587 2.419-1.625c.846-1.058 1.9-2.375 3.98-2.375s3.134 1.317 3.98 2.376c.83 1.037 1.352 1.624 2.419 1.624s1.589-.587 2.419-1.625c.847-1.058 1.9-2.375 3.98-2.375s3.134 1.317 3.98 2.375c.83 1.038 1.352 1.625 2.418 1.625 1.068 0 1.59-.587 2.42-1.625.848-1.058 1.902-2.375 3.983-2.375 2.082 0 3.136 1.316 3.984 2.375.83 1.038 1.354 1.625 2.423 1.625s1.592-.587 2.423-1.625c.848-1.059 1.902-2.375 3.984-2.375v2c-1.07 0-1.592.587-2.423 1.625-.847 1.06-1.902 2.375-3.984 2.375" fill="#F92855" mask="url(#d)"/>
        <path d="M18.02 139.34c3.195 0 3.195 4 6.392 4 3.198 0 3.198-4 6.396-4 3.2 0 3.2 4 6.4 4 3.198 0 3.198-4 6.398-4 3.2 0 3.2 4 6.398 4 3.201 0 3.201-4 6.401-4 3.2 0 3.2 4 6.397 4 3.202 0 3.202-4 6.403-4 3.203 0 3.203 4 6.407 4 3.203 0 3.203-4 6.407-4" fill="#FFF" mask="url(#d)"/>
        <path d="M75.612 144.34c-2.082 0-3.137-1.317-3.984-2.376-.831-1.038-1.353-1.625-2.423-1.625-1.068 0-1.59.587-2.421 1.625-.847 1.06-1.901 2.375-3.982 2.375-2.08 0-3.133-1.317-3.98-2.376-.83-1.037-1.35-1.624-2.417-1.624-1.067 0-1.59.587-2.42 1.625-.846 1.058-1.9 2.375-3.98 2.375s-3.134-1.317-3.98-2.375c-.83-1.038-1.352-1.625-2.42-1.625-1.066 0-1.588.587-2.418 1.624-.846 1.06-1.9 2.376-3.98 2.376s-3.134-1.317-3.98-2.375c-.83-1.038-1.352-1.625-2.42-1.625-1.065 0-1.587.587-2.416 1.625-.846 1.058-1.9 2.375-3.98 2.375-2.078 0-3.131-1.317-3.977-2.376-.83-1.037-1.35-1.624-2.415-1.624v-2c2.079 0 3.132 1.317 3.978 2.376.829 1.037 1.35 1.624 2.415 1.624 1.066 0 1.588-.587 2.417-1.624.846-1.059 1.899-2.376 3.979-2.376s3.134 1.317 3.98 2.375c.83 1.038 1.352 1.625 2.419 1.625s1.589-.587 2.419-1.625c.846-1.058 1.9-2.375 3.98-2.375s3.134 1.317 3.98 2.376c.83 1.037 1.352 1.624 2.419 1.624s1.589-.587 2.419-1.625c.847-1.058 1.9-2.375 3.98-2.375s3.134 1.317 3.98 2.375c.83 1.038 1.352 1.625 2.418 1.625 1.068 0 1.59-.587 2.42-1.625.848-1.058 1.902-2.375 3.983-2.375 2.082 0 3.136 1.316 3.984 2.375.83 1.038 1.354 1.625 2.423 1.625s1.592-.587 2.423-1.625c.848-1.059 1.902-2.375 3.984-2.375v2c-1.07 0-1.592.587-2.423 1.625-.847 1.06-1.902 2.375-3.984 2.375" fill="#F92855" mask="url(#d)"/>
        <path d="M18.02 107.34c3.195 0 3.195 4 6.392 4 3.198 0 3.198-4 6.396-4 3.2 0 3.2 4 6.4 4 3.198 0 3.198-4 6.398-4 3.2 0 3.2 4 6.398 4 3.201 0 3.201-4 6.401-4 3.2 0 3.2 4 6.397 4 3.202 0 3.202-4 6.403-4 3.203 0 3.203 4 6.407 4 3.203 0 3.203-4 6.407-4" fill="#FFF" mask="url(#d)"/>
        <path d="M75.612 112.34c-2.082 0-3.137-1.317-3.984-2.376-.831-1.038-1.353-1.625-2.423-1.625-1.068 0-1.59.587-2.421 1.625-.847 1.06-1.901 2.375-3.982 2.375-2.08 0-3.133-1.317-3.98-2.376-.83-1.037-1.35-1.624-2.417-1.624-1.067 0-1.59.587-2.42 1.625-.846 1.058-1.9 2.375-3.98 2.375s-3.134-1.317-3.98-2.375c-.83-1.038-1.352-1.625-2.42-1.625-1.066 0-1.588.587-2.418 1.624-.846 1.06-1.9 2.376-3.98 2.376s-3.134-1.317-3.98-2.375c-.83-1.038-1.352-1.625-2.42-1.625-1.065 0-1.587.587-2.416 1.625-.846 1.058-1.9 2.375-3.98 2.375-2.078 0-3.131-1.317-3.977-2.376-.83-1.037-1.35-1.624-2.415-1.624v-2c2.079 0 3.132 1.317 3.978 2.376.829 1.037 1.35 1.624 2.415 1.624 1.066 0 1.588-.587 2.417-1.624.846-1.059 1.899-2.376 3.979-2.376s3.134 1.317 3.98 2.375c.83 1.038 1.352 1.625 2.419 1.625s1.589-.587 2.419-1.625c.846-1.058 1.9-2.375 3.98-2.375s3.134 1.317 3.98 2.376c.83 1.037 1.352 1.624 2.419 1.624s1.589-.587 2.419-1.625c.847-1.058 1.9-2.375 3.98-2.375s3.134 1.317 3.98 2.375c.83 1.038 1.352 1.625 2.418 1.625 1.068 0 1.59-.587 2.42-1.625.848-1.058 1.902-2.375 3.983-2.375 2.082 0 3.136 1.316 3.984 2.375.83 1.038 1.354 1.625 2.423 1.625s1.592-.587 2.423-1.625c.848-1.059 1.902-2.375 3.984-2.375v2c-1.07 0-1.592.587-2.423 1.625-.847 1.06-1.902 2.375-3.984 2.375" fill="#F92855" mask="url(#d)"/>
        <path d="M34.02 103.091l-7.543-7.542c-4.166-4.166-4.166-10.92 0-15.085 4.165-4.166 10.92-4.166 15.084 0 4.166 4.165 4.166 10.919 0 15.085l-7.542 7.542z" fill="#132E99" mask="url(#d)"/>
        <path d="M151.352 66.673a5.333 5.333 0 1 1-10.668 0 5.333 5.333 0 0 1 10.668 0m-16 85.333a5.333 5.333 0 1 1-10.668 0 5.333 5.333 0 0 1 10.668 0m-96-64a5.333 5.333 0 1 1-10.668 0 5.333 5.333 0 0 1 10.668 0" fill="#FFF" mask="url(#d)"/>
    </g>
</svg>
