<?xml version="1.0" encoding="UTF-8"?>
<svg width="192px" height="192px" viewBox="0 0 192 192" version="1.1" xmlns="http://www.w3.org/2000/svg" xmlns:xlink="http://www.w3.org/1999/xlink">
    <!-- Generator: sketchtool 41 (35326) - http://www.bohemiancoding.com/sketch -->
    <title>5EFE4983-2949-4884-9419-D67A403134F0</title>
    <desc>Created with sketchtool.</desc>
    <defs>
        <rect id="path-1" x="0" y="0" width="1280" height="608"></rect>
        <mask id="mask-2" maskContentUnits="userSpaceOnUse" maskUnits="objectBoundingBox" x="0" y="0" width="1280" height="608" fill="white">
            <use xlink:href="#path-1"></use>
        </mask>
        <polygon id="path-3" points="0 192 192 192 192 0 0 0"></polygon>
    </defs>
    <g id="Landing-64" stroke="none" stroke-width="1" fill="none" fill-rule="evenodd">
        <g id="Desktop-1248-13" transform="translate(-160.000000, -800.000000)">
            <g id="Group-13" transform="translate(0.000000, 704.000000)" stroke-width="24" stroke="#F92855" fill="#FFFFFF">
                <g id="Group-11">
                    <g id="Group-10">
                        <g id="Group-9">
                            <use id="Rectangle-Copy-2" mask="url(#mask-2)" xlink:href="#path-1"></use>
                        </g>
                    </g>
                </g>
            </g>
            <g id="tam-gde-vam-udobno" transform="translate(160.000000, 800.000000)">
                <polyline id="Fill-1" fill="#FFFFFF" points="175.3524 98.6728 111.3524 34.6728 47.3524 98.6728"></polyline>
                <polygon id="Fill-2" fill="#F92855" points="174.6455 99.3794 111.3525 36.0864 48.0595 99.3794 46.6455 97.9654 111.3525 33.2584 176.0595 97.9654"></polygon>
                <polyline id="Fill-3" fill="#FFFFFF" points="87.3524 58.6728 95.3524 66.6728 103.3524 58.6728 111.3524 66.6728 119.3524 58.6728 127.3524 66.6728 135.3524 58.6728"></polyline>
                <polygon id="Fill-4" fill="#F92855" points="127.3526 68.0864 119.3526 60.0864 111.3526 68.0864 103.3526 60.0864 95.3526 68.0864 86.6456 59.3794 88.0596 57.9654 95.3526 65.2584 103.3526 57.2584 111.3526 65.2584 119.3526 57.2584 127.3526 65.2584 134.6456 57.9654 136.0596 59.3794"></polygon>
                <g id="Group-39">
                    <path d="M146.0191,81.7577 L138.4771,74.2157 C134.3111,70.0497 134.3111,63.2957 138.4771,59.1307 C142.6421,54.9647 149.3961,54.9647 153.5611,59.1307 C157.7271,63.2957 157.7271,70.0497 153.5611,74.2157 L146.0191,81.7577 L146.0191,81.7577 Z" id="Fill-5" fill="#132E99"></path>
                    <path d="M130.0191,167.091 L122.4771,159.549 C118.3111,155.383 118.3111,148.629 122.4771,144.464 L122.4771,144.464 C126.6421,140.298 133.3961,140.298 137.5611,144.464 L137.5611,144.464 C141.7271,148.629 141.7271,155.383 137.5611,159.549 L130.0191,167.091 Z" id="Fill-7" fill="#132E99"></path>
                    <path d="M146.0191,98.6728 C146.0191,107.5098 138.8561,114.6728 130.0191,114.6728 C121.1821,114.6728 114.0191,107.5098 114.0191,98.6728 C114.0191,89.8358 121.1821,82.6728 130.0191,82.6728 C138.8561,82.6728 146.0191,89.8358 146.0191,98.6728" id="Fill-9" fill="#FFFFFF"></path>
                    <path d="M130.0191,83.6723 C121.7481,83.6723 115.0191,90.4013 115.0191,98.6723 C115.0191,106.9433 121.7481,113.6723 130.0191,113.6723 C138.2901,113.6723 145.0191,106.9433 145.0191,98.6723 C145.0191,90.4013 138.2901,83.6723 130.0191,83.6723 M130.0191,115.6723 C120.6451,115.6723 113.0191,108.0463 113.0191,98.6723 C113.0191,89.2983 120.6451,81.6723 130.0191,81.6723 C139.3931,81.6723 147.0191,89.2983 147.0191,98.6723 C147.0191,108.0463 139.3931,115.6723 130.0191,115.6723" id="Fill-11" fill="#F92855"></path>
                    <path d="M130.0191,98.6728 L130.0191,130.6728" id="Fill-13" fill="#FFFFFF"></path>
                    <mask id="mask-4" fill="white">
                        <use xlink:href="#path-3"></use>
                    </mask>
                    <g id="Clip-16"></g>
                    <polygon id="Fill-15" fill="#F92855" mask="url(#mask-4)" points="129.019 130.672 131.019 130.672 131.019 98.672 129.019 98.672"></polygon>
                    <path d="M170.0191,130.6728 C170.0191,139.5098 162.8561,146.6728 154.0191,146.6728 C145.1821,146.6728 138.0191,139.5098 138.0191,130.6728 C138.0191,121.8358 145.1821,114.6728 154.0191,114.6728 C162.8561,114.6728 170.0191,121.8358 170.0191,130.6728" id="Fill-17" fill="#FFFFFF" mask="url(#mask-4)"></path>
                    <path d="M154.0191,115.6723 C145.7481,115.6723 139.0191,122.4013 139.0191,130.6723 C139.0191,138.9433 145.7481,145.6723 154.0191,145.6723 C162.2901,145.6723 169.0191,138.9433 169.0191,130.6723 C169.0191,122.4013 162.2901,115.6723 154.0191,115.6723 M154.0191,147.6723 C144.6451,147.6723 137.0191,140.0463 137.0191,130.6723 C137.0191,121.2983 144.6451,113.6723 154.0191,113.6723 C163.3931,113.6723 171.0191,121.2983 171.0191,130.6723 C171.0191,140.0463 163.3931,147.6723 154.0191,147.6723" id="Fill-18" fill="#F92855" mask="url(#mask-4)"></path>
                    <path d="M154.0191,130.6728 L154.0191,162.6728" id="Fill-19" fill="#FFFFFF" mask="url(#mask-4)"></path>
                    <polygon id="Fill-20" fill="#F92855" mask="url(#mask-4)" points="153.019 162.672 155.019 162.672 155.019 130.672 153.019 130.672"></polygon>
                    <path d="M122.0191,130.6728 C122.0191,139.5098 114.8561,146.6728 106.0191,146.6728 C97.1821,146.6728 90.0191,139.5098 90.0191,130.6728 C90.0191,121.8358 97.1821,114.6728 106.0191,114.6728 C114.8561,114.6728 122.0191,121.8358 122.0191,130.6728" id="Fill-21" fill="#FFFFFF" mask="url(#mask-4)"></path>
                    <path d="M106.0191,115.6723 C97.7481,115.6723 91.0191,122.4013 91.0191,130.6723 C91.0191,138.9433 97.7481,145.6723 106.0191,145.6723 C114.2901,145.6723 121.0191,138.9433 121.0191,130.6723 C121.0191,122.4013 114.2901,115.6723 106.0191,115.6723 M106.0191,147.6723 C96.6451,147.6723 89.0191,140.0463 89.0191,130.6723 C89.0191,121.2983 96.6451,113.6723 106.0191,113.6723 C115.3931,113.6723 123.0191,121.2983 123.0191,130.6723 C123.0191,140.0463 115.3931,147.6723 106.0191,147.6723" id="Fill-22" fill="#F92855" mask="url(#mask-4)"></path>
                    <path d="M106.0191,130.6728 L106.0191,162.6728" id="Fill-23" fill="#FFFFFF" mask="url(#mask-4)"></path>
                    <polygon id="Fill-24" fill="#F92855" mask="url(#mask-4)" points="105.019 162.672 107.019 162.672 107.019 130.672 105.019 130.672"></polygon>
                    <path d="M18.0191,115.3394 C21.2151,115.3394 21.2151,119.3394 24.4121,119.3394 C27.6101,119.3394 27.6101,115.3394 30.8081,115.3394 C34.0071,115.3394 34.0071,119.3394 37.2071,119.3394 C40.4061,119.3394 40.4061,115.3394 43.6061,115.3394 C46.8051,115.3394 46.8051,119.3394 50.0041,119.3394 C53.2051,119.3394 53.2051,115.3394 56.4051,115.3394 C59.6041,115.3394 59.6041,119.3394 62.8021,119.3394 C66.0041,119.3394 66.0041,115.3394 69.2051,115.3394 C72.4081,115.3394 72.4081,119.3394 75.6121,119.3394 C78.8151,119.3394 78.8151,115.3394 82.0191,115.3394" id="Fill-25" fill="#FFFFFF" mask="url(#mask-4)"></path>
                    <path d="M75.6119,120.3393 C73.5299,120.3393 72.4749,119.0233 71.6279,117.9643 C70.7969,116.9263 70.2749,116.3393 69.2049,116.3393 C68.1369,116.3393 67.6149,116.9263 66.7839,117.9643 C65.9369,119.0233 64.8829,120.3393 62.8019,120.3393 C60.7219,120.3393 59.6689,119.0223 58.8219,117.9633 C57.9929,116.9263 57.4719,116.3393 56.4049,116.3393 C55.3379,116.3393 54.8159,116.9263 53.9859,117.9643 C53.1389,119.0223 52.0849,120.3393 50.0049,120.3393 C47.9249,120.3393 46.8709,119.0223 46.0249,117.9643 C45.1949,116.9263 44.6729,116.3393 43.6059,116.3393 C42.5389,116.3393 42.0169,116.9263 41.1869,117.9633 C40.3409,119.0223 39.2869,120.3393 37.2069,120.3393 C35.1269,120.3393 34.0729,119.0223 33.2269,117.9643 C32.3969,116.9263 31.8749,116.3393 30.8079,116.3393 C29.7419,116.3393 29.2199,116.9263 28.3909,117.9643 C27.5449,119.0223 26.4919,120.3393 24.4119,120.3393 C22.3329,120.3393 21.2799,119.0223 20.4339,117.9633 C19.6049,116.9263 19.0849,116.3393 18.0189,116.3393 L18.0189,114.3393 C20.0979,114.3393 21.1509,115.6563 21.9969,116.7153 C22.8259,117.7523 23.3469,118.3393 24.4119,118.3393 C25.4779,118.3393 25.9999,117.7523 26.8289,116.7153 C27.6749,115.6563 28.7279,114.3393 30.8079,114.3393 C32.8879,114.3393 33.9419,115.6563 34.7879,116.7143 C35.6179,117.7523 36.1399,118.3393 37.2069,118.3393 C38.2739,118.3393 38.7959,117.7523 39.6259,116.7143 C40.4719,115.6563 41.5259,114.3393 43.6059,114.3393 C45.6859,114.3393 46.7399,115.6563 47.5859,116.7153 C48.4159,117.7523 48.9379,118.3393 50.0049,118.3393 C51.0719,118.3393 51.5939,117.7523 52.4239,116.7143 C53.2709,115.6563 54.3239,114.3393 56.4049,114.3393 C58.4849,114.3393 59.5379,115.6563 60.3839,116.7143 C61.2149,117.7523 61.7359,118.3393 62.8019,118.3393 C63.8699,118.3393 64.3919,117.7523 65.2229,116.7143 C66.0699,115.6563 67.1239,114.3393 69.2049,114.3393 C71.2869,114.3393 72.3409,115.6553 73.1889,116.7143 C74.0199,117.7523 74.5429,118.3393 75.6119,118.3393 C76.6809,118.3393 77.2039,117.7523 78.0349,116.7143 C78.8829,115.6553 79.9369,114.3393 82.0189,114.3393 L82.0189,116.3393 C80.9499,116.3393 80.4269,116.9263 79.5959,117.9643 C78.7489,119.0233 77.6939,120.3393 75.6119,120.3393" id="Fill-26" fill="#F92855" mask="url(#mask-4)"></path>
                    <path d="M18.0191,123.3394 C21.2151,123.3394 21.2151,127.3394 24.4121,127.3394 C27.6101,127.3394 27.6101,123.3394 30.8081,123.3394 C34.0071,123.3394 34.0071,127.3394 37.2071,127.3394 C40.4061,127.3394 40.4061,123.3394 43.6061,123.3394 C46.8051,123.3394 46.8051,127.3394 50.0041,127.3394 C53.2051,127.3394 53.2051,123.3394 56.4051,123.3394 C59.6041,123.3394 59.6041,127.3394 62.8021,127.3394 C66.0041,127.3394 66.0041,123.3394 69.2051,123.3394 C72.4081,123.3394 72.4081,127.3394 75.6121,127.3394 C78.8151,127.3394 78.8151,123.3394 82.0191,123.3394" id="Fill-27" fill="#FFFFFF" mask="url(#mask-4)"></path>
                    <path d="M75.6119,128.3393 C73.5299,128.3393 72.4749,127.0233 71.6279,125.9643 C70.7969,124.9263 70.2749,124.3393 69.2049,124.3393 C68.1369,124.3393 67.6149,124.9263 66.7839,125.9643 C65.9369,127.0233 64.8829,128.3393 62.8019,128.3393 C60.7219,128.3393 59.6689,127.0223 58.8219,125.9633 C57.9929,124.9263 57.4719,124.3393 56.4049,124.3393 C55.3379,124.3393 54.8159,124.9263 53.9859,125.9643 C53.1389,127.0223 52.0849,128.3393 50.0049,128.3393 C47.9249,128.3393 46.8709,127.0223 46.0249,125.9643 C45.1949,124.9263 44.6729,124.3393 43.6059,124.3393 C42.5389,124.3393 42.0169,124.9263 41.1869,125.9633 C40.3409,127.0223 39.2869,128.3393 37.2069,128.3393 C35.1269,128.3393 34.0729,127.0223 33.2269,125.9643 C32.3969,124.9263 31.8749,124.3393 30.8079,124.3393 C29.7419,124.3393 29.2199,124.9263 28.3909,125.9643 C27.5449,127.0223 26.4919,128.3393 24.4119,128.3393 C22.3329,128.3393 21.2799,127.0223 20.4339,125.9633 C19.6049,124.9263 19.0849,124.3393 18.0189,124.3393 L18.0189,122.3393 C20.0979,122.3393 21.1509,123.6563 21.9969,124.7153 C22.8259,125.7523 23.3469,126.3393 24.4119,126.3393 C25.4779,126.3393 25.9999,125.7523 26.8289,124.7153 C27.6749,123.6563 28.7279,122.3393 30.8079,122.3393 C32.8879,122.3393 33.9419,123.6563 34.7879,124.7143 C35.6179,125.7523 36.1399,126.3393 37.2069,126.3393 C38.2739,126.3393 38.7959,125.7523 39.6259,124.7143 C40.4719,123.6563 41.5259,122.3393 43.6059,122.3393 C45.6859,122.3393 46.7399,123.6563 47.5859,124.7153 C48.4159,125.7523 48.9379,126.3393 50.0049,126.3393 C51.0719,126.3393 51.5939,125.7523 52.4239,124.7143 C53.2709,123.6563 54.3239,122.3393 56.4049,122.3393 C58.4849,122.3393 59.5379,123.6563 60.3839,124.7143 C61.2149,125.7523 61.7359,126.3393 62.8019,126.3393 C63.8699,126.3393 64.3919,125.7523 65.2229,124.7143 C66.0699,123.6563 67.1239,122.3393 69.2049,122.3393 C71.2869,122.3393 72.3409,123.6553 73.1889,124.7143 C74.0199,125.7523 74.5429,126.3393 75.6119,126.3393 C76.6809,126.3393 77.2039,125.7523 78.0349,124.7143 C78.8829,123.6553 79.9369,122.3393 82.0189,122.3393 L82.0189,124.3393 C80.9499,124.3393 80.4269,124.9263 79.5959,125.9643 C78.7489,127.0233 77.6939,128.3393 75.6119,128.3393" id="Fill-28" fill="#F92855" mask="url(#mask-4)"></path>
                    <path d="M18.0191,131.3394 C21.2151,131.3394 21.2151,135.3394 24.4121,135.3394 C27.6101,135.3394 27.6101,131.3394 30.8081,131.3394 C34.0071,131.3394 34.0071,135.3394 37.2071,135.3394 C40.4061,135.3394 40.4061,131.3394 43.6061,131.3394 C46.8051,131.3394 46.8051,135.3394 50.0041,135.3394 C53.2051,135.3394 53.2051,131.3394 56.4051,131.3394 C59.6041,131.3394 59.6041,135.3394 62.8021,135.3394 C66.0041,135.3394 66.0041,131.3394 69.2051,131.3394 C72.4081,131.3394 72.4081,135.3394 75.6121,135.3394 C78.8151,135.3394 78.8151,131.3394 82.0191,131.3394" id="Fill-29" fill="#FFFFFF" mask="url(#mask-4)"></path>
                    <path d="M75.6119,136.3393 C73.5299,136.3393 72.4749,135.0233 71.6279,133.9643 C70.7969,132.9263 70.2749,132.3393 69.2049,132.3393 C68.1369,132.3393 67.6149,132.9263 66.7839,133.9643 C65.9369,135.0233 64.8829,136.3393 62.8019,136.3393 C60.7219,136.3393 59.6689,135.0223 58.8219,133.9633 C57.9929,132.9263 57.4719,132.3393 56.4049,132.3393 C55.3379,132.3393 54.8159,132.9263 53.9859,133.9643 C53.1389,135.0223 52.0849,136.3393 50.0049,136.3393 C47.9249,136.3393 46.8709,135.0223 46.0249,133.9643 C45.1949,132.9263 44.6729,132.3393 43.6059,132.3393 C42.5389,132.3393 42.0169,132.9263 41.1869,133.9633 C40.3409,135.0223 39.2869,136.3393 37.2069,136.3393 C35.1269,136.3393 34.0729,135.0223 33.2269,133.9643 C32.3969,132.9263 31.8749,132.3393 30.8079,132.3393 C29.7419,132.3393 29.2199,132.9263 28.3909,133.9643 C27.5449,135.0223 26.4919,136.3393 24.4119,136.3393 C22.3329,136.3393 21.2799,135.0223 20.4339,133.9633 C19.6049,132.9263 19.0849,132.3393 18.0189,132.3393 L18.0189,130.3393 C20.0979,130.3393 21.1509,131.6563 21.9969,132.7153 C22.8259,133.7523 23.3469,134.3393 24.4119,134.3393 C25.4779,134.3393 25.9999,133.7523 26.8289,132.7153 C27.6749,131.6563 28.7279,130.3393 30.8079,130.3393 C32.8879,130.3393 33.9419,131.6563 34.7879,132.7143 C35.6179,133.7523 36.1399,134.3393 37.2069,134.3393 C38.2739,134.3393 38.7959,133.7523 39.6259,132.7143 C40.4719,131.6563 41.5259,130.3393 43.6059,130.3393 C45.6859,130.3393 46.7399,131.6563 47.5859,132.7153 C48.4159,133.7523 48.9379,134.3393 50.0049,134.3393 C51.0719,134.3393 51.5939,133.7523 52.4239,132.7143 C53.2709,131.6563 54.3239,130.3393 56.4049,130.3393 C58.4849,130.3393 59.5379,131.6563 60.3839,132.7143 C61.2149,133.7523 61.7359,134.3393 62.8019,134.3393 C63.8699,134.3393 64.3919,133.7523 65.2229,132.7143 C66.0699,131.6563 67.1239,130.3393 69.2049,130.3393 C71.2869,130.3393 72.3409,131.6553 73.1889,132.7143 C74.0199,133.7523 74.5429,134.3393 75.6119,134.3393 C76.6809,134.3393 77.2039,133.7523 78.0349,132.7143 C78.8829,131.6553 79.9369,130.3393 82.0189,130.3393 L82.0189,132.3393 C80.9499,132.3393 80.4269,132.9263 79.5959,133.9643 C78.7489,135.0233 77.6939,136.3393 75.6119,136.3393" id="Fill-30" fill="#F92855" mask="url(#mask-4)"></path>
                    <path d="M18.0191,139.3394 C21.2151,139.3394 21.2151,143.3394 24.4121,143.3394 C27.6101,143.3394 27.6101,139.3394 30.8081,139.3394 C34.0071,139.3394 34.0071,143.3394 37.2071,143.3394 C40.4061,143.3394 40.4061,139.3394 43.6061,139.3394 C46.8051,139.3394 46.8051,143.3394 50.0041,143.3394 C53.2051,143.3394 53.2051,139.3394 56.4051,139.3394 C59.6041,139.3394 59.6041,143.3394 62.8021,143.3394 C66.0041,143.3394 66.0041,139.3394 69.2051,139.3394 C72.4081,139.3394 72.4081,143.3394 75.6121,143.3394 C78.8151,143.3394 78.8151,139.3394 82.0191,139.3394" id="Fill-31" fill="#FFFFFF" mask="url(#mask-4)"></path>
                    <path d="M75.6119,144.3393 C73.5299,144.3393 72.4749,143.0233 71.6279,141.9643 C70.7969,140.9263 70.2749,140.3393 69.2049,140.3393 C68.1369,140.3393 67.6149,140.9263 66.7839,141.9643 C65.9369,143.0233 64.8829,144.3393 62.8019,144.3393 C60.7219,144.3393 59.6689,143.0223 58.8219,141.9633 C57.9929,140.9263 57.4719,140.3393 56.4049,140.3393 C55.3379,140.3393 54.8159,140.9263 53.9859,141.9643 C53.1389,143.0223 52.0849,144.3393 50.0049,144.3393 C47.9249,144.3393 46.8709,143.0223 46.0249,141.9643 C45.1949,140.9263 44.6729,140.3393 43.6059,140.3393 C42.5389,140.3393 42.0169,140.9263 41.1869,141.9633 C40.3409,143.0223 39.2869,144.3393 37.2069,144.3393 C35.1269,144.3393 34.0729,143.0223 33.2269,141.9643 C32.3969,140.9263 31.8749,140.3393 30.8079,140.3393 C29.7419,140.3393 29.2199,140.9263 28.3909,141.9643 C27.5449,143.0223 26.4919,144.3393 24.4119,144.3393 C22.3329,144.3393 21.2799,143.0223 20.4339,141.9633 C19.6049,140.9263 19.0849,140.3393 18.0189,140.3393 L18.0189,138.3393 C20.0979,138.3393 21.1509,139.6563 21.9969,140.7153 C22.8259,141.7523 23.3469,142.3393 24.4119,142.3393 C25.4779,142.3393 25.9999,141.7523 26.8289,140.7153 C27.6749,139.6563 28.7279,138.3393 30.8079,138.3393 C32.8879,138.3393 33.9419,139.6563 34.7879,140.7143 C35.6179,141.7523 36.1399,142.3393 37.2069,142.3393 C38.2739,142.3393 38.7959,141.7523 39.6259,140.7143 C40.4719,139.6563 41.5259,138.3393 43.6059,138.3393 C45.6859,138.3393 46.7399,139.6563 47.5859,140.7153 C48.4159,141.7523 48.9379,142.3393 50.0049,142.3393 C51.0719,142.3393 51.5939,141.7523 52.4239,140.7143 C53.2709,139.6563 54.3239,138.3393 56.4049,138.3393 C58.4849,138.3393 59.5379,139.6563 60.3839,140.7143 C61.2149,141.7523 61.7359,142.3393 62.8019,142.3393 C63.8699,142.3393 64.3919,141.7523 65.2229,140.7143 C66.0699,139.6563 67.1239,138.3393 69.2049,138.3393 C71.2869,138.3393 72.3409,139.6553 73.1889,140.7143 C74.0199,141.7523 74.5429,142.3393 75.6119,142.3393 C76.6809,142.3393 77.2039,141.7523 78.0349,140.7143 C78.8829,139.6553 79.9369,138.3393 82.0189,138.3393 L82.0189,140.3393 C80.9499,140.3393 80.4269,140.9263 79.5959,141.9643 C78.7489,143.0233 77.6939,144.3393 75.6119,144.3393" id="Fill-32" fill="#F92855" mask="url(#mask-4)"></path>
                    <path d="M18.0191,107.3394 C21.2151,107.3394 21.2151,111.3394 24.4121,111.3394 C27.6101,111.3394 27.6101,107.3394 30.8081,107.3394 C34.0071,107.3394 34.0071,111.3394 37.2071,111.3394 C40.4061,111.3394 40.4061,107.3394 43.6061,107.3394 C46.8051,107.3394 46.8051,111.3394 50.0041,111.3394 C53.2051,111.3394 53.2051,107.3394 56.4051,107.3394 C59.6041,107.3394 59.6041,111.3394 62.8021,111.3394 C66.0041,111.3394 66.0041,107.3394 69.2051,107.3394 C72.4081,107.3394 72.4081,111.3394 75.6121,111.3394 C78.8151,111.3394 78.8151,107.3394 82.0191,107.3394" id="Fill-33" fill="#FFFFFF" mask="url(#mask-4)"></path>
                    <path d="M75.6119,112.3393 C73.5299,112.3393 72.4749,111.0233 71.6279,109.9643 C70.7969,108.9263 70.2749,108.3393 69.2049,108.3393 C68.1369,108.3393 67.6149,108.9263 66.7839,109.9643 C65.9369,111.0233 64.8829,112.3393 62.8019,112.3393 C60.7219,112.3393 59.6689,111.0223 58.8219,109.9633 C57.9929,108.9263 57.4719,108.3393 56.4049,108.3393 C55.3379,108.3393 54.8159,108.9263 53.9859,109.9643 C53.1389,111.0223 52.0849,112.3393 50.0049,112.3393 C47.9249,112.3393 46.8709,111.0223 46.0249,109.9643 C45.1949,108.9263 44.6729,108.3393 43.6059,108.3393 C42.5389,108.3393 42.0169,108.9263 41.1869,109.9633 C40.3409,111.0223 39.2869,112.3393 37.2069,112.3393 C35.1269,112.3393 34.0729,111.0223 33.2269,109.9643 C32.3969,108.9263 31.8749,108.3393 30.8079,108.3393 C29.7419,108.3393 29.2199,108.9263 28.3909,109.9643 C27.5449,111.0223 26.4919,112.3393 24.4119,112.3393 C22.3329,112.3393 21.2799,111.0223 20.4339,109.9633 C19.6049,108.9263 19.0849,108.3393 18.0189,108.3393 L18.0189,106.3393 C20.0979,106.3393 21.1509,107.6563 21.9969,108.7153 C22.8259,109.7523 23.3469,110.3393 24.4119,110.3393 C25.4779,110.3393 25.9999,109.7523 26.8289,108.7153 C27.6749,107.6563 28.7279,106.3393 30.8079,106.3393 C32.8879,106.3393 33.9419,107.6563 34.7879,108.7143 C35.6179,109.7523 36.1399,110.3393 37.2069,110.3393 C38.2739,110.3393 38.7959,109.7523 39.6259,108.7143 C40.4719,107.6563 41.5259,106.3393 43.6059,106.3393 C45.6859,106.3393 46.7399,107.6563 47.5859,108.7153 C48.4159,109.7523 48.9379,110.3393 50.0049,110.3393 C51.0719,110.3393 51.5939,109.7523 52.4239,108.7143 C53.2709,107.6563 54.3239,106.3393 56.4049,106.3393 C58.4849,106.3393 59.5379,107.6563 60.3839,108.7143 C61.2149,109.7523 61.7359,110.3393 62.8019,110.3393 C63.8699,110.3393 64.3919,109.7523 65.2229,108.7143 C66.0699,107.6563 67.1239,106.3393 69.2049,106.3393 C71.2869,106.3393 72.3409,107.6553 73.1889,108.7143 C74.0199,109.7523 74.5429,110.3393 75.6119,110.3393 C76.6809,110.3393 77.2039,109.7523 78.0349,108.7143 C78.8829,107.6553 79.9369,106.3393 82.0189,106.3393 L82.0189,108.3393 C80.9499,108.3393 80.4269,108.9263 79.5959,109.9643 C78.7489,111.0233 77.6939,112.3393 75.6119,112.3393" id="Fill-34" fill="#F92855" mask="url(#mask-4)"></path>
                    <path d="M34.0191,103.091 L26.4771,95.549 C22.3111,91.383 22.3111,84.629 26.4771,80.464 L26.4771,80.464 C30.6421,76.298 37.3961,76.298 41.5611,80.464 L41.5611,80.464 C45.7271,84.629 45.7271,91.383 41.5611,95.549 L34.0191,103.091 Z" id="Fill-35" fill="#132E99" mask="url(#mask-4)"></path>
                    <path d="M151.3524,66.6728 C151.3524,69.6188 148.9644,72.0058 146.0194,72.0058 C143.0734,72.0058 140.6854,69.6188 140.6854,66.6728 C140.6854,63.7268 143.0734,61.3398 146.0194,61.3398 C148.9644,61.3398 151.3524,63.7268 151.3524,66.6728" id="Fill-36" fill="#FFFFFF" mask="url(#mask-4)"></path>
                    <path d="M135.3524,152.0061 C135.3524,154.9521 132.9644,157.3391 130.0194,157.3391 C127.0734,157.3391 124.6854,154.9521 124.6854,152.0061 C124.6854,149.0601 127.0734,146.6731 130.0194,146.6731 C132.9644,146.6731 135.3524,149.0601 135.3524,152.0061" id="Fill-37" fill="#FFFFFF" mask="url(#mask-4)"></path>
                    <path d="M39.3524,88.0061 C39.3524,90.9521 36.9644,93.3391 34.0194,93.3391 C31.0734,93.3391 28.6854,90.9521 28.6854,88.0061 C28.6854,85.0601 31.0734,82.6731 34.0194,82.6731 C36.9644,82.6731 39.3524,85.0601 39.3524,88.0061" id="Fill-38" fill="#FFFFFF" mask="url(#mask-4)"></path>
                </g>
            </g>
        </g>
    </g>
</svg>