<svg width="192" height="193" viewBox="0 0 192 193" xmlns="http://www.w3.org/2000/svg" xmlns:xlink="http://www.w3.org/1999/xlink">
    <title>
        355F0BC8-6192-4AE8-8703-0E03EB1F6209
    </title>
    <defs>
        <path id="a" d="M0 0h1280v608H0z"/>
        <mask id="b" x="0" y="0" width="1280" height="608" fill="#fff">
            <use xlink:href="#a"/>
        </mask>
        <path id="c" d="M0 192h192V0H0z"/>
    </defs>
    <g fill="none" fill-rule="evenodd">
        <use mask="url(#b)" xlink:href="#a" transform="translate(-160 -128)" stroke="#142E99" stroke-width="24" fill="#FFF"/>
        <path d="M156.333 74.118a2.667 2.667 0 1 1-5.333 0 2.667 2.667 0 0 1 5.333 0z" fill="#FFF"/>
        <path d="M153.667 72.451A1.67 1.67 0 0 0 152 74.118a1.668 1.668 0 0 0 3.334 0 1.67 1.67 0 0 0-1.667-1.667m0 5.333A3.67 3.67 0 0 1 150 74.118a3.671 3.671 0 0 1 3.667-3.667 3.672 3.672 0 0 1 3.667 3.667 3.672 3.672 0 0 1-3.667 3.666" fill="#132E99"/>
        <path d="M151 116.784H39c-4.4 0-8-3.6-8-8V39.451c0-4.4 3.6-8 8-8h112c4.4 0 8 3.6 8 8v69.334c0 4.4-3.6 8-8 8" fill="#FFF"/>
        <path d="M39 32.451c-3.86 0-7 3.141-7 7v69.333c0 3.86 3.14 7 7 7h112c3.86 0 7-3.14 7-7V39.451c0-3.859-3.14-7-7-7H39zm112 85.333H39c-4.962 0-9-4.037-9-9V39.451c0-4.963 4.038-9 9-9h112c4.962 0 9 4.037 9 9v69.333c0 4.963-4.038 9-9 9z" fill="#132E99"/>
        <mask id="d" fill="#fff">
            <use xlink:href="#c"/>
        </mask>
        <path fill="#FFF" mask="url(#d)" d="M41.666 111.451h106.667V36.784H41.666z"/>
        <path d="M42.667 110.451h104.667V37.784H42.667v72.667zm-2.001 2h108.667V35.784H40.666v76.667z" fill="#132E99" mask="url(#d)"/>
        <path d="M36.334 68.784v10.667" fill="#FFF" mask="url(#d)"/>
        <path d="M36.334 80.451a1 1 0 0 1-1-1V68.784a1 1 0 1 1 2 0v10.667a1 1 0 0 1-1 1" fill="#132E99" mask="url(#d)"/>
        <path d="M87 154.118H60.333c-4.4 0-8-3.6-8-8V76.785c0-4.4 3.6-8 8-8H87c4.4 0 8 3.6 8 8v69.333c0 4.4-3.6 8-8 8" fill="#FFF" mask="url(#d)"/>
        <path d="M60.334 69.784c-3.86 0-7 3.141-7 7v69.334c0 3.86 3.14 7 7 7H87c3.86 0 7-3.14 7-7V76.784c0-3.859-3.14-7-7-7H60.335zM87 155.118H60.335c-4.963 0-9-4.037-9-9V76.784c0-4.963 4.037-9 9-9H87c4.963 0 9 4.037 9 9v69.334c0 4.963-4.037 9-9 9z" fill="#132E99" mask="url(#d)"/>
        <path fill="#FFF" mask="url(#d)" d="M57.667 143.451h32v-64h-32z"/>
        <path d="M58.667 142.451h30v-62h-30v62zm31 2h-32a1 1 0 0 1-1-1v-64a1 1 0 0 1 1-1h32a1 1 0 0 1 1 1v64a1 1 0 0 1-1 1z" fill="#132E99" mask="url(#d)"/>
        <path d="M68.334 74.118H79" fill="#FFF" mask="url(#d)"/>
        <path d="M79 75.118H68.333a1 1 0 1 1 0-2H79a1 1 0 1 1 0 2" fill="#132E99" mask="url(#d)"/>
        <path d="M76.334 148.785a2.667 2.667 0 1 1-5.334 0 2.667 2.667 0 0 1 5.334 0" fill="#FFF" mask="url(#d)"/>
        <path d="M73.667 147.118c-.919 0-1.667.747-1.667 1.666a1.67 1.67 0 0 0 1.667 1.667 1.67 1.67 0 0 0 1.667-1.667c0-.919-.748-1.666-1.667-1.666m0 5.333A3.671 3.671 0 0 1 70 148.784a3.67 3.67 0 0 1 3.667-3.666 3.672 3.672 0 0 1 3.667 3.666 3.672 3.672 0 0 1-3.667 3.667" fill="#132E99" mask="url(#d)"/>
        <path d="M135 164.785h-10.667c-4.4 0-8-3.6-8-8v-21.333c0-4.4 3.6-8 8-8H135c4.4 0 8 3.6 8 8v21.333c0 4.4-3.6 8-8 8" fill="#FFF" mask="url(#d)"/>
        <path d="M135 127.451h-10.667c-4.4 0-8 3.6-8 8v21.333c0 4.4 3.6 8 8 8H135c4.4 0 8-3.6 8-8v-21.333c0-4.4-3.6-8-8-8m0 2c3.308 0 6 2.691 6 6v21.333c0 3.31-2.692 6-6 6h-10.667c-3.308 0-6-2.69-6-6v-21.333c0-3.309 2.692-6 6-6H135" fill="#132E99" mask="url(#d)"/>
        <path d="M116.334 148.785v5.333" fill="#FFF" mask="url(#d)"/>
        <path d="M116.334 155.118a1 1 0 0 1-1-1v-5.334a1 1 0 1 1 2 0v5.334a1 1 0 0 1-1 1" fill="#132E99" mask="url(#d)"/>
        <path fill="#FFF" mask="url(#d)" d="M84.334 84.784l-10.668 16 10.668 5.334-10.668 16"/>
        <path d="M73.666 123.118a1.001 1.001 0 0 1-.831-1.555l10.038-15.057-10.666-5.334L83.501 84.23a1 1 0 0 1 1.665 1.11l-10.039 15.057 10.667 5.334-11.295 16.943a1 1 0 0 1-.833.445" fill="#132E99" mask="url(#d)"/>
        <path fill="#FFF" mask="url(#d)" d="M143 42.118l-16 24 16 8-16 24"/>
        <path d="M126.999 99.118a1.001 1.001 0 0 1-.831-1.555l15.372-23.057-16-8 16.628-24.943a1 1 0 1 1 1.664 1.11L128.46 65.73l16 8-16.628 24.943a1 1 0 0 1-.833.445" fill="#132E99" mask="url(#d)"/>
        <path fill="#FFF" mask="url(#d)" d="M137.667 132.785l-5.333 8 5.333 2.667-5.333 8"/>
        <path d="M132.333 152.451a1.001 1.001 0 0 1-.831-1.555l4.704-7.057-5.332-2.667 5.96-8.943a1 1 0 1 1 1.665 1.11l-4.706 7.057 5.334 2.667-5.962 8.943a1 1 0 0 1-.832.445" fill="#132E99" mask="url(#d)"/>
        <path fill="#F92855" mask="url(#d)" d="M97.667 39.451L111 26.118l13.334 13.333L111 52.784z"/>
        <path d="M106.556 39.451a4.444 4.444 0 1 1 8.889 0 4.444 4.444 0 0 1-8.89 0" fill="#FFF" mask="url(#d)"/>
        <path fill="#F92855" mask="url(#d)" d="M41.667 132.785L55 119.45l13.334 13.334L55 146.118z"/>
        <path d="M50.556 132.785a4.444 4.444 0 1 1 8.889 0 4.444 4.444 0 0 1-8.89 0" fill="#FFF" mask="url(#d)"/>
        <path fill="#F92855" mask="url(#d)" d="M105.667 135.451L119 122.118l13.334 13.333L119 148.784z"/>
        <path d="M114.556 135.451a4.444 4.444 0 1 1 8.889 0 4.444 4.444 0 0 1-8.89 0" fill="#FFF" mask="url(#d)"/>
    </g>
</svg>
