<?xml version="1.0" encoding="UTF-8"?>
<svg width="192px" height="192px" viewBox="0 0 192 192" version="1.1" xmlns="http://www.w3.org/2000/svg" xmlns:xlink="http://www.w3.org/1999/xlink">
    <!-- Generator: sketchtool 41 (35326) - http://www.bohemiancoding.com/sketch -->
    <title>BA34392C-531C-462C-B598-B041DF17CC11</title>
    <desc>Created with sketchtool.</desc>
    <defs>
        <rect id="path-1" x="0" y="0" width="1280" height="608"></rect>
        <mask id="mask-2" maskContentUnits="userSpaceOnUse" maskUnits="objectBoundingBox" x="0" y="0" width="1280" height="608" fill="white">
            <use xlink:href="#path-1"></use>
        </mask>
        <polygon id="path-3" points="0 192 192 192 192 0 0 0"></polygon>
    </defs>
    <g id="Landing-64" stroke="none" stroke-width="1" fill="none" fill-rule="evenodd">
        <g id="Desktop-1248-13" transform="translate(-544.000000, -800.000000)">
            <g id="Group-13" transform="translate(0.000000, 704.000000)" stroke-width="24" stroke="#F92855" fill="#FFFFFF">
                <g id="Group-11">
                    <g id="Group-10">
                        <g id="Group-9">
                            <use id="Rectangle-Copy-2" mask="url(#mask-2)" xlink:href="#path-1"></use>
                        </g>
                    </g>
                </g>
            </g>
            <g id="vashe-vremya-bezcenno" transform="translate(544.000000, 800.000000)">
                <path d="M160.0001,96.9996 C160.0001,132.3456 131.3461,160.9996 96.0001,160.9996 C60.6541,160.9996 32.0001,132.3456 32.0001,96.9996 C32.0001,61.6536 60.6541,32.9996 96.0001,32.9996 C131.3461,32.9996 160.0001,61.6536 160.0001,96.9996 L160.0001,96.9996 Z" id="Fill-1" fill="#FFFFFF"></path>
                <path d="M96,34 C61.262,34 33,62.262 33,97 C33,131.738 61.262,160 96,160 C130.738,160 159,131.738 159,97 C159,62.262 130.738,34 96,34 M96,162 C60.159,162 31,132.841 31,97 C31,61.159 60.159,32 96,32 C131.841,32 161,61.159 161,97 C161,132.841 131.841,162 96,162" id="Fill-3" fill="#F92855"></path>
                <mask id="mask-4" fill="white">
                    <use xlink:href="#path-3"></use>
                </mask>
                <g id="Clip-6"></g>
                <polygon id="Fill-5" fill="#F92855" mask="url(#mask-4)" points="42.666 98 53.333 98 53.333 96 42.666 96"></polygon>
                <polygon id="Fill-7" fill="#F92855" mask="url(#mask-4)" points="138.666 98 149.333 98 149.333 96 138.666 96"></polygon>
                <polygon id="Fill-8" fill="#F92855" mask="url(#mask-4)" points="95 150.333 97 150.333 97 139.666 95 139.666"></polygon>
                <polygon id="Fill-9" fill="#F92855" mask="url(#mask-4)" points="95 54.333 97 54.333 97 43.666 95 43.666"></polygon>
                <polygon id="Fill-10" fill="#F92855" mask="url(#mask-4)" points="50.312 124.5322 49.312 122.8002 58.55 117.4672 59.55 119.1992"></polygon>
                <polygon id="Fill-11" fill="#F92855" mask="url(#mask-4)" points="133.4507 76.5322 132.4507 74.8002 141.6877 69.4672 142.6877 71.1992"></polygon>
                <polygon id="Fill-12" fill="#F92855" mask="url(#mask-4)" points="121.8008 143.6875 116.4678 134.4505 118.1998 133.4505 123.5328 142.6875"></polygon>
                <polygon id="Fill-13" fill="#F92855" mask="url(#mask-4)" points="73.8008 60.5488 68.4678 51.3118 70.1998 50.3118 75.5328 59.5488"></polygon>
                <polygon id="Fill-14" fill="#F92855" mask="url(#mask-4)" points="70.1997 143.6875 68.4677 142.6875 73.8007 133.4505 75.5327 134.4505"></polygon>
                <polygon id="Fill-15" fill="#F92855" mask="url(#mask-4)" points="118.1997 60.5488 116.4677 59.5488 121.8007 50.3118 123.5327 51.3118"></polygon>
                <polygon id="Fill-16" fill="#F92855" mask="url(#mask-4)" points="141.688 124.5322 132.451 119.1992 133.451 117.4672 142.688 122.8002"></polygon>
                <polygon id="Fill-17" fill="#F92855" mask="url(#mask-4)" points="58.5498 76.5322 49.3118 71.1992 50.3118 69.4672 59.5498 74.8002"></polygon>
                <polygon id="Fill-18" fill="#F92855" mask="url(#mask-4)" points="80.5547 108.498 79.4457 106.834 94.9997 96.465 94.9997 59.666 96.9997 59.666 96.9997 97.535"></polygon>
                <path d="M16.8611,128.1387 C16.8611,116.8317 26.0271,107.6667 37.3331,107.6667 C48.6401,107.6667 57.8061,116.8317 57.8061,128.1387 C57.8061,139.4457 48.6401,148.6107 37.3331,148.6107 C26.0271,148.6107 16.8611,139.4457 16.8611,128.1387" id="Fill-19" fill="#132E99" mask="url(#mask-4)"></path>
                <path d="M35.7599,138.4332 C33.3269,138.0222 31.5319,136.7172 30.3749,134.5192 L33.6119,131.8712 C34.0629,132.5962 34.6079,133.2102 35.2449,133.7102 C35.8819,134.2102 36.6429,134.4602 37.5259,134.4602 C38.2119,134.4602 38.7179,134.2892 39.0409,133.9452 C39.3649,133.6022 39.5269,133.1852 39.5269,132.6952 C39.5269,132.2242 39.3399,131.8162 38.9679,131.4732 C38.5949,131.1302 37.9669,130.7622 37.0839,130.3702 L35.9069,129.8402 C34.3179,129.1342 33.1509,128.2172 32.4049,127.0892 C31.6589,125.9602 31.2869,124.6902 31.2869,123.2772 C31.2869,122.5122 31.3989,121.8112 31.6249,121.1732 C31.8499,120.5362 32.1649,119.9662 32.5669,119.4662 C32.9689,118.9662 33.4399,118.5442 33.9789,118.2012 C34.5189,117.8572 35.1129,117.6072 35.7599,117.4512 L35.7599,114.8902 L39.4979,114.8902 L39.4979,117.4802 C40.1249,117.6372 40.7139,117.9022 41.2629,118.2742 C41.8129,118.6472 42.3819,119.1772 42.9699,119.8632 L40.1449,122.8362 C39.6349,122.2672 39.2029,121.8842 38.8499,121.6882 C38.4969,121.4922 38.1039,121.3942 37.6729,121.3942 C37.0259,121.3942 36.5449,121.5612 36.2309,121.8942 C35.9169,122.2282 35.7599,122.6302 35.7599,123.1012 C35.7599,123.6502 35.9899,124.1022 36.4519,124.4542 C36.9119,124.8072 37.6239,125.2012 38.5859,125.6322 L39.7029,126.1322 C42.5679,127.4262 43.9999,129.5162 43.9999,132.4002 C43.9999,133.9702 43.6029,135.2752 42.8079,136.3152 C42.0139,137.3542 40.9099,138.0412 39.4979,138.3742 L39.4979,140.9642 L35.7599,140.9642 L35.7599,138.4332 Z" id="Fill-20" fill="#FFFFFF" mask="url(#mask-4)"></path>
            </g>
        </g>
    </g>
</svg>