<svg width="192" height="192" viewBox="0 0 192 192" xmlns="http://www.w3.org/2000/svg" xmlns:xlink="http://www.w3.org/1999/xlink">
    <title>
        BA34392C-531C-462C-B598-B041DF17CC11
    </title>
    <defs>
        <path id="a" d="M0 0h1280v608H0z"/>
        <mask id="b" x="0" y="0" width="1280" height="608" fill="#fff">
            <use xlink:href="#a"/>
        </mask>
        <path id="c" d="M0 192h192V0H0z"/>
    </defs>
    <g fill="none" fill-rule="evenodd">
        <use mask="url(#b)" xlink:href="#a" transform="translate(-544 -96)" stroke-width="24" stroke="#F92855" fill="#FFF"/>
        <path d="M160 97c0 35.346-28.654 64-64 64-35.346 0-64-28.654-64-64 0-35.346 28.654-64 64-64 35.346 0 64 28.654 64 64z" fill="#FFF"/>
        <path d="M96 34c-34.738 0-63 28.262-63 63s28.262 63 63 63 63-28.262 63-63-28.262-63-63-63m0 128c-35.841 0-65-29.159-65-65s29.159-65 65-65 65 29.159 65 65-29.159 65-65 65" fill="#F92855"/>
        <mask id="d" fill="#fff">
            <use xlink:href="#c"/>
        </mask>
        <path fill="#F92855" mask="url(#d)" d="M42.666 98h10.667v-2H42.666zm96 0h10.667v-2h-10.667zM95 150.333h2v-10.667h-2zm0-96h2V43.666h-2zm-44.688 70.199l-1-1.732 9.238-5.333 1 1.732zm83.138-48l-1-1.732 9.238-5.333 1 1.732zm-11.65 67.156l-5.332-9.237 1.732-1 5.333 9.237zm-48-83.139l-5.332-9.237 1.732-1 5.333 9.237zm-3.6 83.139l-1.732-1 5.333-9.237 1.732 1zm48-83.139l-1.732-1 5.333-9.237 1.732 1zm23.488 63.983l-9.237-5.333 1-1.732 9.237 5.333zm-83.138-48L49.312 71.2l1-1.732L59.55 74.8zm22.005 31.966l-1.11-1.664L95 96.465V59.666h2v37.869z"/>
        <path d="M16.861 128.139c0-11.307 9.166-20.472 20.472-20.472 11.307 0 20.473 9.165 20.473 20.472 0 11.307-9.166 20.472-20.473 20.472-11.306 0-20.472-9.165-20.472-20.472" fill="#132E99" mask="url(#d)"/>
        <path d="M35.76 138.433c-2.433-.41-4.228-1.716-5.385-3.914l3.237-2.648a7.042 7.042 0 0 0 1.633 1.84c.637.5 1.398.75 2.28.75.687 0 1.193-.172 1.516-.516.324-.343.486-.76.486-1.25 0-.47-.187-.879-.56-1.222-.372-.343-1-.71-1.883-1.103l-1.177-.53c-1.59-.706-2.756-1.623-3.502-2.75-.746-1.13-1.118-2.4-1.118-3.813 0-.765.112-1.466.338-2.104a5.77 5.77 0 0 1 2.354-2.972 5.835 5.835 0 0 1 1.78-.75v-2.56h3.739v2.59a5.517 5.517 0 0 1 1.765.793c.55.373 1.119.903 1.707 1.59l-2.825 2.972c-.51-.569-.942-.952-1.295-1.148a2.385 2.385 0 0 0-1.177-.294c-.647 0-1.128.167-1.442.5a1.699 1.699 0 0 0-.471 1.207c0 .55.23 1.001.692 1.353.46.353 1.172.747 2.134 1.178l1.117.5C42.568 127.426 44 129.516 44 132.4c0 1.57-.397 2.875-1.192 3.915-.794 1.04-1.898 1.726-3.31 2.06v2.59H35.76v-2.532z" fill="#FFF" mask="url(#d)"/>
    </g>
</svg>
