<svg width="192" height="193" viewBox="0 0 192 193" xmlns="http://www.w3.org/2000/svg" xmlns:xlink="http://www.w3.org/1999/xlink">
    <title>
        FAC7C642-1F87-45C9-96A8-85DA860E87CD
    </title>
    <defs>
        <path id="a" d="M0 0h1280v608H0z"/>
        <mask id="b" x="0" y="0" width="1280" height="608" fill="#fff">
            <use xlink:href="#a"/>
        </mask>
        <path id="c" d="M0 192h192V0H0z"/>
    </defs>
    <g fill="none" fill-rule="evenodd">
        <use mask="url(#b)" xlink:href="#a" transform="translate(-928 -128)" stroke="#142E99" stroke-width="24" fill="#FFF"/>
        <path fill="#FFF" d="M15.023 92.785h117.333V39.452H15.023z"/>
        <path d="M16.022 91.784h115.333V40.451H16.022v51.333zm-2 2h119.333V38.451H14.022v55.333z" fill="#132E99"/>
        <path d="M89.689 82.118h32-32z" fill="#FFF"/>
        <path fill="#132E99" d="M89.689 83.118h32v-2h-32z"/>
        <path d="M89.689 66.118c0 8.837-7.163 16-16 16s-16-7.163-16-16 7.163-16 16-16 16 7.163 16 16z" fill="#FFF"/>
        <path d="M73.689 51.118c-8.271 0-15 6.73-15 15 0 8.271 6.729 15 15 15s15-6.729 15-15c0-8.27-6.729-15-15-15m0 32c-9.374 0-17-7.626-17-17 0-9.374 7.626-17 17-17 9.374 0 17 7.626 17 17 0 9.374-7.626 17-17 17" fill="#132E99"/>
        <path d="M172.356 135.451h-69.333c-4.4 0-8-3.6-8-8v-48c0-4.4 3.6-8 8-8h69.333c4.4 0 8 3.6 8 8v48c0 4.4-3.6 8-8 8" fill="#FFF"/>
        <path d="M103.022 72.451c-3.86 0-7 3.141-7 7v48c0 3.86 3.14 7 7 7h69.334c3.86 0 7-3.14 7-7v-48c0-3.859-3.14-7-7-7h-69.334zm69.334 64h-69.334c-4.962 0-9-4.037-9-9v-48c0-4.963 4.038-9 9-9h69.334c4.962 0 9 4.037 9 9v48c0 4.963-4.038 9-9 9z" fill="#132E99"/>
        <path d="M153.689 119.451c0 5.891-4.776 10.667-10.667 10.667s-10.666-4.776-10.666-10.667c0-5.89 4.775-10.667 10.666-10.667s10.667 4.776 10.667 10.667" fill="#FFF"/>
        <path d="M143.023 109.784c-5.332 0-9.667 4.337-9.667 9.667s4.335 9.667 9.667 9.667c5.33 0 9.667-4.337 9.667-9.667s-4.338-9.667-9.667-9.667m0 21.334c-6.434 0-11.667-5.233-11.667-11.667s5.233-11.667 11.667-11.667c6.433 0 11.667 5.233 11.667 11.667s-5.234 11.667-11.667 11.667" fill="#132E99"/>
        <path d="M169.689 119.451c0 5.891-4.776 10.667-10.667 10.667s-10.666-4.776-10.666-10.667c0-5.89 4.775-10.667 10.666-10.667s10.667 4.776 10.667 10.667" fill="#FFF"/>
        <path d="M159.023 109.784c-5.332 0-9.667 4.337-9.667 9.667s4.335 9.667 9.667 9.667c5.33 0 9.667-4.337 9.667-9.667s-4.338-9.667-9.667-9.667m0 21.334c-6.434 0-11.667-5.233-11.667-11.667s5.233-11.667 11.667-11.667c6.433 0 11.667 5.233 11.667 11.667s-5.234 11.667-11.667 11.667" fill="#132E99"/>
        <mask id="d" fill="#fff">
            <use xlink:href="#c"/>
        </mask>
        <path fill="#FFF" mask="url(#d)" d="M95.023 98.118h85.333V87.451H95.023z"/>
        <path d="M96.022 97.118h83.333v-8.667H96.022v8.667zm-2 2h87.333V86.451H94.022v12.667z" fill="#132E99" mask="url(#d)"/>
        <path d="M25.689 50.118h32" fill="#FFF" mask="url(#d)"/>
        <path fill="#132E99" mask="url(#d)" d="M25.689 51.118h32v-2h-32z"/>
        <path d="M89.689 50.118h32" fill="#FFF" mask="url(#d)"/>
        <path fill="#132E99" mask="url(#d)" d="M89.689 51.118h32v-2h-32z"/>
        <path d="M25.689 82.118h32" fill="#FFF" mask="url(#d)"/>
        <path fill="#132E99" mask="url(#d)" d="M25.689 83.118h32v-2h-32z"/>
        <path d="M68.356 130.118c0-11.782 9.55-21.333 21.333-21.333 11.782 0 21.334 9.55 21.334 21.333 0 11.782-9.552 21.333-21.334 21.333s-21.333-9.551-21.333-21.333" fill="#F92855" mask="url(#d)"/>
        <path d="M90.29 129.726c.372 0 .72-.074 1.042-.22a2.56 2.56 0 0 0 .836-.602c.235-.254.42-.542.557-.865.137-.322.206-.66.206-1.012 0-.704-.25-1.324-.748-1.862-.5-.538-1.13-.807-1.892-.807h-2.112v5.368h2.112zm-6.804-9.768h6.864a7.141 7.141 0 0 1 5.089 2.068 6.965 6.965 0 0 1 1.496 2.244c.36.861.542 1.78.542 2.757 0 .978-.181 1.898-.542 2.758a6.965 6.965 0 0 1-1.496 2.244 7.106 7.106 0 0 1-2.26 1.51 7.124 7.124 0 0 1-2.83.557h-2.17v6.689h-4.693v-20.827z" fill="#FFF" mask="url(#d)"/>
        <path fill="#FFF" mask="url(#d)" d="M80.355 138.118h10.667v-2.667H80.355z"/>
    </g>
</svg>
